<?xml version="1.0" encoding="utf-8"?>
<!-- Generator: Adobe Illustrator 16.0.0, SVG Export Plug-In . SVG Version: 6.00 Build 0)  -->
<!DOCTYPE svg PUBLIC "-//W3C//DTD SVG 1.1//EN" "http://www.w3.org/Graphics/SVG/1.1/DTD/svg11.dtd">
<svg version="1.1" id="Capa_1" xmlns="http://www.w3.org/2000/svg" xmlns:xlink="http://www.w3.org/1999/xlink" x="0px" y="0px"
	 width="328px" height="291.334px" viewBox="0 0 328 291.334" enable-background="new 0 0 328 291.334" xml:space="preserve">
<g>
	<g>
		<path fill="#FCA035" d="M279.519,174.692c0.283-1.105,0.588-2.209,0.947-3.316c0.361-1.123-0.592-1.969-1.592-2.088
			c-0.646-0.078-1.205,0.018-1.719,0.193c-0.182-0.695-0.852-1.193-1.527-1.234c0.197-0.545,0.389-1.098,0.578-1.641
			c0.477,0.064,0.973-0.189,0.93-0.805c-0.029-0.484-0.029-0.969-0.053-1.449c1.312-3.367,2.467-6.496,3.57-9.244
			c3.527-8.779,6.02-32.363-2.623-55.207c-0.914-2.416-1.955-4.762-3.078-7.057c-3.576-14.842-11.314-27.984-22.611-38.658
			c-28.207-26.662-70.459-35.725-108.002-29.111c-12.764,2.248-25.195,6.229-36.885,11.768
			c-15.746,5.617-30.23,15.578-40.236,27.844c-12.047,14.771-18.496,33.551-17.887,52.236c-3.809,18.602-1.652,36.768,6.779,61.578
			c0.83,2.449,1.951,4.75,3.322,6.898c-0.043,0.186-0.055,0.393-0.018,0.619c0.256,1.646,0.59,3.252,0.961,4.838
			c-5.141-10.219-8.434-17.557-12.012-17.516c0,14.271,6.09,35.146,18.369,53.221c3.955,5.818,9.105,10.422,14.152,15.219
			c8.076,7.674,17.709,12.752,27.688,17.189c3.658,1.627,7.66,2.822,11.775,3.67c11.096,3.486,22.816,5.137,34.537,5.012
			c1.945-0.016,3.877-0.094,5.793-0.207c13.922,1.947,28.252,0.898,40.943-5.207c9.736-4.68,19.133-10.215,28.592-15.43
			c1.096-0.604,2.182-1.236,3.299-1.826c3.094-1.635,6.107-3.377,9.018-5.324c4.672-3.117,9.242-6.369,13.074-10.412
			c0.367-0.391,0.18-0.846-0.172-1.031c0.225-0.246,0.467-0.467,0.691-0.721c2.184-2.459,3.758-5.473,5.379-8.43
			c7.473-8.768,12.516-19.322,14.727-30.781c0.572,0.053,1.146-0.145,1.439-0.771c1.695-3.584,3.168-7.172,4.287-10.98
			C282.394,175.042,280.64,174.032,279.519,174.692z M193.88,26.991c31.873,6.52,63.902,25.992,75.984,56.766
			c-3.154-4.945-6.754-9.611-10.689-14.039c-0.553-0.623-1.16-1.201-1.77-1.773c-8.557-12.555-21.766-22.617-34.934-29.379
			c-9.381-4.818-19.332-8.027-29.566-9.633c-2.734-0.764-5.625-1.355-8.457-1.67c-21.264-2.342-41.912-0.916-60.914,5.512
			c-1.389,0.209-2.775,0.428-4.162,0.709C143.021,24.772,168.438,21.788,193.88,26.991z M249.813,210.052
			c-1.488,1.787-3.062,3.502-4.719,5.137c-1.99,1.879-4.076,3.682-6.232,5.418c-3.893,2.971-8.193,5.572-12.973,7.742
			c-2.721,1.232-5.498,2.338-8.291,3.385C229.341,226.231,240.228,219.122,249.813,210.052z M224.28,224.88
			c7.959-4.787,15.59-10.357,22.963-16.586C240.235,214.841,232.524,220.327,224.28,224.88z M167.966,235.335
			c-49.631-0.115-90.57-40.977-90.164-90.746C78.761,25.54,256.778,26.88,256.663,145.978
			C256.618,195.571,217.042,235.444,167.966,235.335z M166.241,251.405c-9.707,0.119-19.479-0.666-29.027-2.395
			c3.445,0.201,6.9,0.215,10.33,0.064c21.305-0.936,43.586-5.205,63.865-11.691c-8.908,4.186-18.119,7.521-26.871,10.033
			C178.524,249.14,172.407,250.462,166.241,251.405z M180.665,254.747c-7.986,1.691-16.084,2.785-24.127,3.014
			c-1.986-0.641-4.23-1.285-6.654-1.936c4.934-0.164,9.867-0.574,14.781-1.252c5.09,0.061,10.215-0.133,15.334-0.549
			C180.157,254.274,180.372,254.515,180.665,254.747z M79.437,87.913c-0.062,0.068-0.139,0.115-0.191,0.199
			c-2.137,3.354-4.135,6.785-6.002,10.273c-0.061-0.479-0.355-0.875-0.73-1.16c2.037-4.293,4.375-8.531,6.963-12.592
			c-0.166,0.607-0.352,1.207-0.49,1.83C78.864,87.001,79.077,87.534,79.437,87.913z M102.294,69.13
			c-4.566,3.869-8.785,8.344-13.223,13.574c-2.146,2.535-4.109,5.168-5.973,7.852c0.098-0.168,0.182-0.34,0.279-0.506
			C88.358,81.718,94.87,74.892,102.294,69.13z M84.132,80.8c1.424-3.336,3.27-6.385,5.4-9.213c0.246-0.268,0.484-0.537,0.732-0.801
			c5.053-3.926,10.697-7.088,16.627-9.67c-6.486,4.188-12.496,9.057-17.652,14.758C87.501,77.479,85.796,79.12,84.132,80.8z
			 M252.181,77.687c-4.238-6.535-10.148-11.686-16.66-15.875c-4.221-2.717-8.732-5.266-13.414-7.613
			c-0.268-0.359-0.539-0.713-0.842-1.025c-0.572-0.592-1.16-1.107-1.742-1.65c11.676,5.307,22.346,12.75,31.082,22.102
			c0.641,1.402,1.4,3.137,2.316,5.332C252.669,78.536,252.448,78.099,252.181,77.687z M254.97,92.083
			c-11.816-16.621-21.682-22.98-35.553-29.91c-0.713-0.357-1.389-0.684-2.061-1.002c11.463,5.086,22.236,11.699,32.043,19.65
			C251.579,84.409,253.288,88.237,254.97,92.083z M216.374,46.72c-0.135-0.24-0.332-0.461-0.656-0.611
			c-6.064-2.844-12.352-4.947-18.807-6.396c13.52,2.24,26.516,7.242,37.635,15.486c2.334,1.727,4.502,3.588,6.539,5.543
			C233.565,54.966,225.194,50.278,216.374,46.72z M245.851,60.554c-1.65-1.762-3.385-3.455-5.213-5.062
			c-0.031-0.07-0.066-0.137-0.121-0.197c-9.705-10.355-23.617-17.711-37.434-22.287c-0.17-0.1-0.326-0.197-0.504-0.291
			c6.775,2.02,13.357,4.682,19.59,8.008c10.137,5.414,18.404,12.289,25.906,20.191C247.423,60.632,246.69,60.483,245.851,60.554z
			 M202.979,34.851c5.461,1.891,10.787,4.178,15.873,6.932c0.211,0.113,0.396,0.246,0.604,0.361c-2.18-0.949-4.42-1.822-6.721-2.607
			c-5.742-1.953-11.648-3.268-17.629-4.102C197.681,35.263,200.304,35.067,202.979,34.851z M195.38,48.126
			c9.168,2.744,19.699,10.629,27.609,11.17c1.289,0.664,2.57,1.332,3.842,2.014c5.572,2.994,10.994,6.498,15.572,10.869
			c-19.898-13.793-43.645-22.172-67.664-24.32c-10.688-0.955-21.328-0.531-31.822,1.053c10.68-3.055,21.781-4.59,32.885-4.062
			c4.215,0.199,8.398,0.762,12.535,1.592c0.623,0.498,1.709,0.566,2.482,0.65c0.561,0.059,1.143,0.154,1.719,0.285
			C193.493,47.591,194.44,47.843,195.38,48.126z M201.577,55.282c-4.562-1.191-9.49-2.166-16.602-3.926
			C190.608,52.313,196.151,53.632,201.577,55.282z M143.722,50.935c-0.34,0.066-0.699,0.127-1.039,0.199
			c-9.818,2.119-17.625,4.631-24.275,7.723c1.537-0.807,3.076-1.609,4.646-2.363c1.967-0.945,3.961-1.84,5.979-2.689
			C133.89,52.589,138.794,51.646,143.722,50.935z M122.14,49.354c3.197-1.174,6.459-2.244,9.74-3.266
			c-0.062,0.295-0.074,0.684-0.105,1.314c-0.012,0.215,0.086,0.408,0.217,0.584c-4.531,1.895-8.918,4.133-13.287,6.428
			c-0.469,0.244-0.939,0.492-1.41,0.732c-7.592,2.578-14.881,5.812-21.451,10.113c1.646-1.512,3.33-2.98,5.049-4.408
			c1.131-0.939,2.26-1.83,3.389-2.693C109.841,54.536,115.948,51.62,122.14,49.354z M56.835,93.688
			c-2.061,4.816-3.756,9.438-5.143,13.973c1.773-15.572,8.105-30.654,18.33-42.555c8.375-9.75,19.051-17.381,30.764-22.605
			c1.805-0.807,3.619-1.516,5.436-2.174c-7.002,3.809-13.713,8.414-20.037,13.977C73.562,65.413,63.462,78.22,56.835,93.688z
			 M65.964,192.749c3.535,2.887,5.398,8.182,9.367,14.449c-4.008-4.75-7.586-9.82-10.389-15.342
			C65.278,192.153,65.612,192.462,65.964,192.749z M74.802,215.229c-1.756-2.395-3.404-4.766-4.867-7.172
			c-1.715-2.809-3.129-5.797-4.33-8.881c7.209,11.984,17.648,22.041,28.193,31.115c3.445,2.965,7.037,5.764,10.822,8.24
			c-3.211-1.568-6.363-3.246-9.395-5.127C87.384,228.544,80.372,222.403,74.802,215.229z M110.452,244.702
			c-5.104-2.264-9.746-4.9-13.943-7.846c5.146,3.066,10.58,5.73,16.186,7.965C111.942,244.784,111.2,244.737,110.452,244.702z
			 M103.296,233.472c-3.715-2.668-7.279-5.609-10.725-8.697c10.713,7.748,22.799,12.957,35.682,16.363
			c8.592,2.271,17.312,3.102,26.084,3.059c-5.9,0.506-11.818,0.805-17.713,0.934C124.915,244.188,113.632,240.899,103.296,233.472z
			 M123.167,249.19c-0.906-0.24-1.762-0.523-2.639-0.787c0.902,0.023,1.789,0.07,2.693,0.084c4.645,1.396,9.33,2.543,13.986,3.422
			c2.264,0.426,4.555,0.801,6.867,1.127c-2.025-0.006-4.051-0.08-6.072-0.182C132.874,251.622,127.694,250.394,123.167,249.19z
			 M140.185,264.269c1.688-0.053,3.318-0.154,4.904-0.287c0.93,0.273,1.844,0.572,2.785,0.828
			C145.298,264.714,142.733,264.534,140.185,264.269z M155.269,264.856c-2.348-0.359-4.686-0.764-7.02-1.207
			c4.639-0.588,8.568-1.512,11.314-2.639c9.131-0.482,18.297-1.998,27.275-4.217c5.863,0.303,13.408-2.488,23.064-4.516
			C192.685,259.751,173.835,264.394,155.269,264.856z M204.087,258.763c-9.459,4.9-18.941,7.639-29.652,7.648
			c-1.09,0.002-2.176-0.025-3.266-0.059c16.127-2.396,31.291-7.971,45.738-15.521c1.383-0.307,2.76-0.631,4.102-1.006
			C215.401,252.878,209.737,255.835,204.087,258.763z M257.856,216.271c-26.176,15.705-34.592,22.285-50.07,25.936
			c-0.117,0.031-0.229,0.072-0.34,0.1c9.979-4.295,19.838-9.594,28.701-16.027c8.094-5.082,15.174-11.545,20.83-19.998
			c3.543-4.682,6.555-9.709,8.877-15.117c0.178-0.412,0.178-0.803,0.08-1.143c0.104-0.23,0.195-0.465,0.299-0.697
			c0.68-0.982,1.359-1.957,2.039-2.938c0.543,0.104,1.105-0.08,1.418-0.717c0.205-0.436,0.418-0.865,0.629-1.299
			c-0.32,1.232-0.639,2.461-0.957,3.691c-0.402,1.562,1.689,2.658,2.672,1.506C268.47,199.13,264.144,208.323,257.856,216.271z"/>
		<g>
			<g>
				<path fill="#FFFFFF" d="M306.077,51.409c-0.088-2.871-4.131-3.387-4.939-0.629c-5.588,19.057-22.115,80.027-34.59,128.637
					c2.469,0.334,4.895,1.145,7.348,1.631c3.121,0.617,6.275,1.047,9.436,1.438c3.816-2.119,12.822,2.904,14.027-7.752
					C298.034,168.786,306.479,64.784,306.077,51.409z"/>
			</g>
			<g>
				<path fill="#FFFFFF" d="M266.134,181.026c-8.199,32.02-14.547,58.35-14.674,63.188c-0.199,7.412,19.832,8.555,22.672-9.809
					c6.279-40.611,6.178-46.752,7.678-50.082C276.501,183.694,271.366,182.411,266.134,181.026z M266.079,229.659
					c-0.055,0.436-0.213,1.012-0.449,1.604c-0.207,0.713-0.557,1.402-1.066,1.895c-0.861,1.07-2.012,1.598-3.24,0.305
					c-0.137-0.143-0.199-0.314-0.295-0.473c-1.301-1.547-0.566-4.789,0.607-6.188c0.887-1.055,2.426-1.549,3.553-0.535
					C266.126,227.112,266.228,228.485,266.079,229.659z M267.964,208.159c-2.99-0.195-2.982-4.195-1.715-6.102
					c0.67-1.008,1.914-1.619,3.119-1.26c0.738,0.213,1.17,0.793,1.412,1.459C272.067,204.194,270.669,208.339,267.964,208.159z"/>
			</g>
		</g>
		<g>
			<path fill="#FFFFFF" d="M51.636,127.698c5.66-4.465,13.779-8.928,10.734-22.307c-19.141-84.131-9.086-21.58-10.82,0.619
				c-0.156,2.006-2.881,2.41-3.678,0.562c-3.674-8.541-4.613-33.355-9.451-42.449c-1.809,11.166,0.779,56.156-5.641,43.67
				c-1.217-2.371-8.75-59.633-9.602-39.225c-2.383,57.293-3.709,57.566,18.068,61.082c8.26,67.715,2.871,104.947,18.428,119.209
				c6.205,5.686,14.775,1.887,15.328-11.127C75.499,225.999,49.222,129.606,51.636,127.698z M65.286,239.226
				c-0.379,0.338-0.842,0.564-1.383,0.619c-1.158,0.113-2.26-0.652-2.877-1.633c-0.619-0.984-0.852-2.156-1.057-3.299
				c-0.303-1.639-0.574-3.326-0.299-4.973c0.402-2.363,2.164-4.408,4.615-3.197c2.646,1.301,2.252,6.225,2.367,8.57
				C66.724,236.724,66.274,238.353,65.286,239.226z"/>
		</g>
	</g>
	<g>
		<path fill="#FFFFFF" d="M105.021,96.151c0.141,0.492,0.279,1.016,0.424,1.555c0.457,1.732,0.977,3.684,1.74,5.494
			c-0.26-0.125-0.609-0.205-1.078-0.205c-0.914,0-2.672,0.324-2.809,1.543c-0.307,2.465,0.379,4.729,1.99,6.555
			c2.861,3.242,7.879,4.393,11.309,4.393c0.805,0,1.584-0.059,2.305-0.174c7.967-1.254,13.172-9.268,14.797-16.656
			c1.701-7.932-1.934-15.354-8.822-18.043c-1.305-0.537-2.791-0.791-4.408-0.773c2.303-3.32,3.973-7.592,4.973-12.744
			c0.564-3.104,0.52-5.797-0.131-7.977c-0.309-1.186-0.832-2.078-1.564-2.66c-0.604-0.697-1.506-1.08-2.562-1.08
			c-0.791,0-1.643,0.211-2.457,0.613c-1.084,0.527-1.838,1.49-2.504,2.34c-0.113,0.145-0.225,0.287-0.326,0.416
			c-0.334,0.398-0.791,0.982-1.072,1.588l-0.189,0.266c-2.018,3.521-3.004,7.455-3.953,11.26c-0.059,0.229-0.113,0.459-0.172,0.689
			c-0.021-0.748-0.033-1.48-0.041-2.205c-0.014-1.393,0.111-2.838,0.24-4.365c0.238-2.779,0.482-5.654-0.131-8.316
			c-0.088-0.373-0.461-1.25-2.041-1.25c-0.834,0-2.855,0.338-3.449,1.365c-1.797,3.34-2.078,7.506-2.324,11.184l-0.057,0.816
			c-0.316,4.502-0.25,9.082,0.211,13.613C103.319,87.495,103.849,91.878,105.021,96.151z M111.673,108.077
			c0.477,0,2.861-0.078,2.984-1.645c0.143-2.855-0.418-5.625-0.967-8.301c-0.131-0.652-0.262-1.297-0.385-1.953
			c-0.566-2.865-0.691-5.689-0.395-9.072c0.201-0.09,0.326-0.188,0.422-0.275c1.613-1.551,3.557-3.135,5.777-3.135
			c0.166,0,0.336,0.008,0.5,0.023c1.51,0.172,3.229,1.246,4.598,2.879c2.57,3.076,3.223,7.664,1.75,12.291
			c-1.205,4.045-3.314,7.682-5.641,9.736c-1.311,1.174-2.725,1.77-4.197,1.77c-1.934,0-3.766-0.994-5.275-2.402
			C111.056,108.044,111.325,108.077,111.673,108.077z M121.487,63.743c-0.441,2.057-1.279,4.082-2.09,6.037l-0.18,0.432
			c-1.346,3.158-3,6-5.203,8.896c0.137-0.719,0.281-1.441,0.436-2.156c1.012-4.484,2.113-8.055,3.463-11.229
			c0.172-0.395,0.338-0.791,0.504-1.188c0.391-0.938,0.762-1.824,1.182-2.668c0.049-0.1,0.111-0.232,0.188-0.387
			c0.891-1.881,1.391-2.504,1.65-2.699c0.018,0.023,0.041,0.053,0.061,0.09C121.976,59.618,121.976,61.614,121.487,63.743z"/>
		<path fill="#FFFFFF" d="M138.78,111.696c1.17,0,1.488-0.133,1.621-0.189c0.277-0.127,0.549-0.254,0.818-0.381
			c0.238-0.113,0.473-0.223,0.715-0.334c0.865-0.186,1.725-0.396,2.582-0.607c1.328-0.328,2.703-0.666,4.053-0.889
			c0.234-0.01,0.471-0.021,0.703-0.029c0.754-0.029,1.531-0.059,2.287-0.15c1.375-0.137,2.449-1,2.498-2.012
			c0.018-0.342-0.07-1.482-1.928-1.855c-1.029-0.199-2.148-0.299-3.332-0.301c-0.021-1.885-0.223-3.801-0.42-5.662
			c-0.135-1.268-0.277-2.578-0.348-3.826c-0.611-10.645-0.014-21.352,1.828-32.785c0.016-0.131,0.031-0.25,0.047-0.354
			c0.012-0.092,0.025-0.178,0.035-0.266c0.051-0.008,0.105-0.016,0.16-0.021c1.125-0.15,2.293-0.301,3.461-0.67
			c1.51-0.5,1.615-1.422,1.588-1.797c-0.025-0.367-0.246-1.254-1.801-1.545c-0.738-0.123-1.531-0.188-2.357-0.188
			c-4.596,0-10.279,2.041-13.814,4.963c-0.688,0.57-0.592,1.201-0.52,1.451c0.215,0.73,1.031,1.078,1.725,1.16l0.164,0.004
			c0.035,0,0.068,0.621,0.105,0.625c0.086,0.006,0.172,0.629,0.258,0.629h0.029c0.074,0,0.17-0.607,0.281-0.607
			c1.605,0,2.32-0.571,2.66-0.845c0.061-0.023,0.119-0.198,0.178-0.218c-0.152,0.762-0.303,1.662-0.463,2.914
			c-0.035,0.293-0.064,0.479-0.084,0.588c-0.357,2.047-0.654,4.108-0.939,6.128l-0.084,0.589c-0.637,5.033-1.031,10.447-1.209,16.58
			c-0.004,0.119,0.312,10.842,1.217,14.678c-1.766,0.73-3.289,1.734-4.449,2.934c-0.35,0.365-0.455,0.863-0.271,1.297
			C135.993,111.22,136.511,111.696,138.78,111.696z M143.763,63.216h-0.002l0,0H143.763z"/>
		<path fill="#FFFFFF" d="M153.274,88.063c-0.328,0.367-0.416,0.852-0.234,1.289c0.291,0.713,1.221,1.049,2.08,1.205
			c-0.07,2.609,0.088,5.121,0.486,7.654c0.779,4.637,2.498,10.141,8.924,11.57c1.209,0.258,2.525,0.395,3.799,0.395
			c4.797,0,8.229-1.848,9.402-5.029l0.197-0.557l-0.301-0.445c-0.307-0.461-0.859-0.633-2.039-0.633c-0.822,0-1.09,0.096-1.23,0.168
			c-1.615,0.701-3.686,1.502-5.441,1.502c-1.051,0-1.826-0.283-2.365-0.863c-1.449-1.545-1.906-5.029-2.062-6.191
			c-0.543-3.602-0.504-7.639,0.121-12.33c0.277-0.105,0.564-0.205,0.842-0.301c1.672-0.543,3.318-0.566,5.064-0.588
			c1.02-0.014,2.074-0.025,3.133-0.146c0.016,0,1.559-0.168,1.781-1.248c0.088-0.422-0.053-1.004-0.723-1.369
			c-2.623-1.406-5.875-1.742-9.408-0.992c0.395-2.379,0.85-4.752,1.291-7.064l0.326-1.697c0.182-0.887,0.406-1.824,0.635-2.783
			c0.562-2.381,1.197-5.045,1.355-7.588c1.73-0.461,3.516-0.928,5.275-1.094c0.461-0.037,0.93-0.059,1.438-0.059
			c1.613,0,3.275,0.207,4.881,0.408c1.652,0.207,3.475,0.416,5.18,0.416c0.66,0,1.986-0.029,1.986-0.092v-0.004
			c0-0.031,1.688-0.217,2.029-1.104c0.178-0.459-0.009-0.961-0.407-1.322c-2.186-1.912-5.788-2.84-10.952-2.84
			c-1.576,0-3.094,0.084-4.359,0.168c-2.227,0.139-4.157,0.34-5.866,0.607c-0.549-0.486-1.446-0.756-2.573-0.756
			c-0.598,0-2.071,0.094-2.729,0.951c-0.486,0.643-0.892,1.262-1.229,1.881c-1.02,0.592-1.786,1.277-2.284,2.051l-0.042,0.068
			c-0.203,0.375-0.209,0.799-0.018,1.162c0.148,0.277,0.379,0.467,0.65,0.594c-1.156,3.361-1.811,7.117-2.395,10.469
			c-0.232,1.342-0.453,2.605-0.693,3.773c-0.648,3.229-1.113,6.076-1.41,8.688C154.522,86.737,153.845,87.405,153.274,88.063z"/>
		<path fill="#FFFFFF" d="M186.808,108.536c0.736,1.531,2.256,2.559,3.779,2.559c0.27,0,0.537-0.031,0.787-0.092
			c3.168-0.746,3.271-5.008,3.301-6.414c0.154-7.062,1.75-14.117,4.738-20.961c1.566-3.475,3.398-6.691,5.441-9.568
			c0.404-0.57,0.768-1.125,1.123-1.664c1.047-1.588,1.945-2.959,3.514-4.197c1.604-1.273,3.801-3.018,5.799-3.018
			c0.391,0,0.752,0.07,1.111,0.213c0.223,0.084,0.359,0.217,0.455,0.443c0.691,1.654-1.217,5.984-2.242,8.309
			c-0.387,0.881-0.693,1.572-0.852,2.057c-2.74,8.51-4.848,16.166-6.441,23.393c-0.074,0.342-0.16,0.717-0.252,1.121
			c-1.168,5.113-3.344,14.625-0.002,19.295c1.109,1.553,2.721,2.449,4.74,2.66c0.092,0.012,0.293,0.041,0.498,0.041
			c0.9,0,1.234-0.502,1.355-0.783c0.439-0.936,0.488-2.191,0.537-3.408c0.02-0.547,0.041-1.061,0.096-1.434
			c0.107-0.688,0.127-1.418,0.148-2.352c0.078-3.33,0.225-9.525,4.758-26.125c0.387-1.393,0.797-2.791,1.215-4.199
			c1.355-4.596,2.758-9.35,3.254-14.15c0.262-2.584-0.555-5.07-2.307-7.01c-1.773-1.965-4.275-3.088-6.865-3.088
			c-1.078,0-2.143,0.193-3.17,0.574c-2.119,0.799-4.207,2.195-6.395,4.289c-1.438,1.416-2.994,3.049-4.391,4.846l1.316-5.248
			c0.205-0.834,0.439-1.781,0.277-2.768c-0.211-1.098-1.008-2.285-2.318-2.475c-0.973-0.145-1.889,0.25-2.818,1.174
			c-1.846,1.807-2.891,4.186-3.742,6.48c-4.49,11.902-6.898,24.301-7.162,36.859C186.079,105.2,186.056,106.991,186.808,108.536z"/>
		<path fill="#FFFFFF" d="M167.743,165.431c0.174-0.783,0.043-1.729-0.084-2.639c-0.064-0.469-0.129-0.91-0.131-1.246
			c-0.014-0.564-0.107-1.146-0.227-1.887c-0.418-2.602-1.205-7.443-0.074-21.047c0.096-1.234,0.223-2.482,0.348-3.736
			c0.371-3.695,0.756-7.521,0.475-11.266c-0.252-3.172-0.695-4.621-4.123-6.24c-1.197-0.568-2.363-0.852-3.473-0.852
			c-4.547,0-7.07,4.566-8.607,8.422c-0.062-0.551-0.158-1.105-0.307-1.656c-0.734-2.568-2.801-4.365-5.023-4.365
			c-0.918,0-1.805,0.303-2.629,0.885c-1.711,1.191-3.486,3.979-4.855,6.785l0.236-3.773c0.035-0.666,0.084-0.561-0.201-1.352
			c-0.412-1.051-1.312-0.797-2.293-0.797h-0.078c-0.828,0-1.566-0.422-2.191,0.48c-1.201,1.711-1.68,3.28-2.016,5.224
			c-1.781,9.967-1.859,19.788-0.238,29.657c0.18,1.041,0.43,2.354,1.268,3.49c0.982,1.342,2.809,1.875,4.174,1.271
			c2.512-1.105,1.951-4.599,1.768-5.739c-0.904-5.512-0.684-11.241,0.652-16.987c0.713-2.93,1.672-5.703,2.846-8.227
			c0.105-0.23,0.234-0.584,0.416-1.072c1.789-4.805,2.648-5.326,2.936-5.326c0.014,0,0.068,0.014,0.166,0.1
			c1.16,0.934,0.826,4.787,0.648,6.857c-0.057,0.666-0.107,1.24-0.121,1.705c-0.092,2.787-0.291,5.602-0.479,8.326
			c-0.307,4.375-0.627,8.898-0.51,13.398c-0.008,0.797,0.078,1.797,0.793,2.461c0.406,0.391,0.953,0.607,1.541,0.607
			c1.025,0,2.062-0.648,2.512-1.537c0.568-1.031,0.521-2.158,0.479-3.156l-0.014-0.299c-0.264-4.607,0.801-9.182,1.834-13.607
			c1.281-5.625,2.609-10.926,5.885-15.719c0.652-0.947,1.227-0.908,1.703-0.908h0.07c0.492,0,0.637-0.309,0.689-0.242
			c0.52,0.652,0.184,2.241,0.006,3.233c-0.039,0.211-0.072,0.272-0.102,0.456c-1.234,8.275-1.957,15.809-2.277,23.848l-0.035,0.885
			c-0.168,4.111-0.48,11.845,2.695,15.146c1.029,1.078,2.336,1.722,3.873,1.722l0,0c0.178,0,0.359-0.113,0.514-0.127
			C167.368,166.536,167.671,165.837,167.743,165.431z M137.591,133.581v0.006V133.581L137.591,133.581z"/>
		<path fill="#FFFFFF" d="M182.089,131.931c0.18-0.693,0.389-1.424,0.604-2.18c0.525-1.828,1.109-3.875,1.34-5.857
			c1.387-0.305,2.707-0.576,4.049-0.641c1.641-0.066,3.248,0.211,4.957,0.504c1.781,0.305,3.639,0.617,5.51,0.514
			c0.227-0.006,1.596-0.07,1.957-0.951c0.178-0.432,0.072-0.912-0.287-1.27c-2.568-2.465-7.324-2.748-10.676-2.748
			c-0.525,0-1.027,0.006-1.488,0.016c-1.148,0.021-2.822,0.072-4.594,0.26c-0.568-0.492-1.486-0.689-2.312-0.689
			c-0.564,0-1.59,0.096-2.127,0.736c-0.406,0.484-0.746,0.951-1.033,1.426c-0.834,0.441-1.475,0.971-1.912,1.578l-0.039,0.062
			c-0.215,0.357-0.236,0.762-0.066,1.121c0.104,0.213,0.248,0.371,0.428,0.494c-1.012,2.6-1.654,5.496-2.227,8.088
			c-0.238,1.053-0.455,2.049-0.689,2.963c-0.627,2.521-1.096,4.742-1.424,6.781c-0.691,0.547-1.24,1.043-1.709,1.533
			c-0.324,0.336-0.432,0.807-0.281,1.232c0.219,0.607,0.908,0.938,1.582,1.121c-0.137,2.018-0.094,3.971,0.123,5.955
			c0.424,3.479,1.588,8.266,6.818,9.682c1.178,0.307,2.455,0.471,3.688,0.471c3.605,0,6.168-1.355,7.188-3.779l0.23-0.551
			l-0.295-0.463c-0.137-0.215-0.42-0.666-2.057-0.666c-0.352,0-0.566,0.031-0.752,0.105c-1.211,0.465-2.766,0.992-4.086,0.992
			c-0.883,0-1.506-0.23-1.91-0.705c-1.049-1.229-1.281-3.959-1.361-4.873c-0.295-2.828-0.129-5.975,0.518-9.6
			c0.186-0.059,0.375-0.115,0.553-0.17c0.764-0.211,1.58-0.305,2.648-0.305c0.441,0,0.889,0.014,1.332,0.031
			c0.834,0.025,1.697,0.053,2.508-0.004c0.014,0,1.393-0.074,1.646-1.08c0.105-0.406-0.004-0.969-0.621-1.342
			c-1.998-1.191-4.494-1.605-7.266-1.201c0.383-1.764,0.801-3.525,1.211-5.238L182.089,131.931z"/>
		<path fill="#FFFFFF" d="M115.394,199.552c-1.262-1.244-2.455-2.418-3.564-3.65l-0.385-0.422c-2.227-2.453-4.529-4.986-6.146-7.709
			c-1.309-2.242-1.756-6.67,0.391-8.568c1.066,0.123,2.547,0.627,2.834,2.441c0.072,0.426-0.256,1.186-0.52,1.797
			c-0.445,1.02-1.27,2.912,0.49,3.738c0.525,0.242,1.053,0.367,1.561,0.367l0,0c1.404,0,2.609-0.941,3.311-2.584
			c0.889-2.088,0.902-5.197-0.627-6.785c-1.158-1.197-2.82-1.957-4.682-2.143c-0.738-0.178-1.512-0.266-2.305-0.266
			c-2.523,0-5.098,0.895-7.062,2.463c-4.459,3.619-4.254,8.805,0.604,15.416c2.051,2.775,4.41,5.318,6.693,7.779
			c2.172,2.338,4.42,4.758,6.336,7.322c2.402,3.256,3.355,6.234,2.84,8.846c-0.66,3.238-2.74,5.098-5.701,5.098
			c-2.244,0-4.555-1.117-6.029-2.914c-0.998-1.219-2.066-3.287-1.48-6.232c0.203-1,0.846-2.307,2.01-2.711
			c0.115-0.041,0.502-0.092,0.785-0.133c1.238-0.168,3.113-0.422,3.283-1.93c0.066-0.539-0.086-1.059-0.443-1.5
			c-0.938-1.166-2.934-1.363-3.039-1.371c-2.521-0.162-5.488,1.984-6.924,4.02c-2.008,2.93-3.164,7.719-0.955,11.309
			c2.773,4.471,7.254,6.936,12.613,6.936c2.191,0,4.447-0.404,6.701-1.203c8.146-2.861,10.008-9.77,8.238-15.35
			C122.657,206.69,118.968,203.06,115.394,199.552z"/>
		<path fill="#FFFFFF" d="M163.116,223.181c-1.174-3.088-2.389-6.283-2.953-8.936c-0.697-3.111-1.014-6.191-1.213-8.9
			c0.445,0.055,0.816,0.172,1.111,0.355c0.127,0.08,0.465,0.287,1.531,0.287c1.549,0,2.502-0.324,2.828-0.971
			c0.203-0.4,0.16-0.859-0.133-1.256c-1.16-1.482-3.014-2.188-5.594-2.098c-0.01-0.213-0.021-0.424-0.033-0.635
			c-0.027-0.564-0.055-1.133-0.092-1.684c-0.244-4.377-0.305-8.959-0.18-14.004c0.027-1.025,0.178-2.215,0.336-3.475
			c0.434-3.465,0.924-7.391-0.859-10.191c-0.279-0.391-0.762-0.584-1.473-0.584c-0.215,0-0.436,0.02-0.639,0.051
			c-0.227-0.062-0.457-0.074-0.646-0.074c-0.832,0-2.121,0.271-2.385,0.367c-0.623,0.201-1.227,0.828-2.006,1.779l-0.092,0.117
			c-1.348,1.506-2.354,3.314-3.33,5.062l-0.342,0.615c-2.568,4.525-4.781,9.404-6.568,14.49c-1.797,5.027-2.947,9.652-3.514,14.092
			c-0.055,0.301-0.098,0.621-0.141,0.949c-0.01,0.062-0.016,0.125-0.023,0.189c-1.568,0.49-2.773,0.73-3.664,0.73
			c-1.291,0-1.445-0.496-1.516-0.717c-0.164-0.557-0.707-1.219-2.359-1.219c-0.344,0-2.064,0.043-2.674,0.859
			c-0.227,0.305-0.293,0.682-0.195,1.012c0.521,1.914,1.961,4.191,5.859,4.191c1.17,0,2.516-0.195,4.082-0.604
			c-0.303,3.834-0.283,7.92,1.42,11.322c0.354,0.75,1.307,0.361,1.627,0.361h0.002c1,0,1.619,0,1.844,0h0.027
			c0.518-1,0.496-3.633,0.477-5.357c-0.006-0.725-0.016-1.515,0.018-2.231c0.104-1.951,0.297-4.015,0.574-6.103
			c1.316-0.533,2.654-1.113,3.955-1.666c1.541-0.656,3.014-1.287,4.432-1.85c0.619,5.201,2.795,17.265,9.939,23.206
			c0.541,0.402,1.803,0.446,2.318,0.446c1.178,0,1.867-0.219,2.234-0.711c0.229-0.311,0.299-0.705,0.189-1.08
			C164.747,227.468,163.954,225.382,163.116,223.181z M146.192,194.429c1.088-3.051,2.359-6.07,3.867-9.16
			c-0.463,5.018-0.225,10.123,0.006,15.08l0.01,0.195c0.062,1.002,0.125,2.029,0.207,3.07c-2.42,0.846-4.895,1.836-7.312,2.811
			C143.747,202.368,144.827,198.339,146.192,194.429z"/>
		<path fill="#FFFFFF" d="M192.659,194.243c-1.176-0.777-2.611-1.322-4.176-1.607c2.9-2.814,5.367-6.684,7.34-11.545
			c1.156-2.934,1.629-5.59,1.416-7.854c-0.076-1.219-0.416-2.199-1.018-2.908c-0.602-1.047-1.775-1.646-3.252-1.646
			c-0.521,0-1.055,0.072-1.59,0.219c-1.162,0.307-2.09,1.105-2.904,1.811c-0.139,0.117-0.277,0.238-0.404,0.344
			c-0.4,0.324-0.963,0.809-1.354,1.352l-0.238,0.225c-2.662,3.062-4.387,6.734-6.055,10.279c-0.102,0.215-0.201,0.43-0.303,0.643
			c0.125-0.742,0.254-1.465,0.389-2.17c0.258-1.367,0.654-2.762,1.08-4.236c0.768-2.684,1.561-5.453,1.475-8.182
			c-0.014-0.402-0.258-1.721-2.863-1.721c-0.697,0-1.957,0.098-2.545,0.773c-2.406,2.924-3.486,6.961-4.443,10.52l-0.211,0.795
			c-1.184,4.354-1.998,8.859-2.424,13.396c-0.402,4.104-0.727,8.504-0.402,12.924c0.043,0.51,0.08,1.049,0.113,1.604
			c0.115,1.791,0.246,3.801,0.646,5.725c-0.588-0.432-1.488-0.496-1.947-0.496c-1.48,0-1.973,0.588-2.121,1.062
			c-0.865,2.607-0.486,5.184,1.088,7.449c2.666,3.836,8.123,5.988,12.135,6.137c0.178,0.004,0.354,0.01,0.529,0.01
			c5.223,0,12.865-3.529,17.209-13.494C201.03,206.198,198.899,198.216,192.659,194.243z M192.595,177.042
			c-0.834,1.934-2.045,3.76-3.223,5.525l-0.254,0.383c-1.932,2.836-4.102,5.303-6.824,7.721c0.273-0.682,0.555-1.359,0.842-2.031
			c1.863-4.209,3.633-7.498,5.568-10.35c0.244-0.35,0.482-0.707,0.721-1.064c0.57-0.846,1.105-1.643,1.678-2.393
			c0.066-0.088,0.156-0.207,0.258-0.346c1.244-1.672,1.854-2.182,2.141-2.324c0.014,0.025,0.027,0.059,0.043,0.1
			C193.87,173.087,193.483,175.044,192.595,177.042z M177.644,217.603c0.693-2.775,0.674-5.598,0.658-8.332
			c-0.006-0.662-0.01-1.324-0.004-1.988c0-2.924,0.424-5.719,1.369-8.98c0.17-0.039,0.324-0.1,0.465-0.186
			c1.482-0.957,3.428-2.053,5.33-2.053c0.496,0,0.977,0.072,1.432,0.215c1.447,0.455,2.926,1.846,3.953,3.711
			c1.93,3.512,1.686,8.141-0.66,12.398c-1.961,3.732-4.73,6.895-7.41,8.459c-1.152,0.684-2.299,1.025-3.416,1.025
			c-2.303,0-4.32-1.461-5.781-3.49c0.717,0.346,1.717,0.369,1.957,0.369C177.013,218.751,177.491,218.14,177.644,217.603z"/>
		<path fill="#FFFFFF" d="M238.241,178.103c-3.227-3.236-9.418-3.436-15.047-3.436h-0.504c-2.012,0-3.783-0.205-5.385-0.064
			c-0.67-0.684-1.898-1.079-2.939-1.079c-0.766,0-1.793,0.065-2.359,0.708c-0.529,0.611-0.973,1.166-1.355,1.762
			c-1.055,0.518-1.867,1.135-2.42,1.869l-0.043,0.056c-0.23,0.363-0.266,0.784-0.098,1.157c0.127,0.287,0.346,0.488,0.611,0.637
			c-1.385,3.273-2.297,6.977-3.109,10.279c-0.322,1.322-0.625,2.57-0.947,3.719c-0.867,3.182-1.521,5.988-2,8.568
			c-0.916,0.691-1.635,1.312-2.248,1.926c-0.352,0.346-0.475,0.82-0.324,1.273c0.246,0.73,1.148,1.129,1.994,1.342
			c-0.248,2.605-0.262,5.119-0.033,7.672c0.459,4.678,1.799,10.285,8.113,12.154c1.566,0.445,3.32,0.689,4.943,0.689
			c4.229,0,7.271-1.578,8.537-4.414l0.246-0.566l-0.295-0.475c-0.129-0.207-0.467-0.756-2.486-0.756
			c-0.322,0-0.527,0.027-0.707,0.096c-1.504,0.537-3.438,1.146-5.123,1.146c-1.268,0-2.16-0.338-2.73-1.037
			c-1.334-1.639-1.555-5.145-1.629-6.316c-0.299-3.631,0.014-7.658,0.955-12.291c0.281-0.084,0.568-0.164,0.865-0.244
			c0.865-0.221,1.799-0.322,2.92-0.322c0.717,0,1.428,0.039,2.174,0.08c1.016,0.057,2.129,0.115,3.139,0.068
			c0.016,0,1.566-0.068,1.857-1.127c0.117-0.416,0.012-1.006-0.631-1.414c-2.523-1.582-5.727-2.141-9.314-1.633
			c0.551-2.32,1.158-4.641,1.756-6.895l0.455-1.736c0.24-0.869,0.525-1.787,0.82-2.732c0.725-2.332,1.539-5.395,1.871-7.924
			c1.832-0.357,3.568-1.176,5.34-1.176h0.256c2.008,0,4.047,0.805,6.021,1.186c2.223,0.434,4.527,0.985,6.871,0.985l0,0
			c0.307,0,1.857,0.235,2.258-0.712C238.704,178.69,238.601,178.478,238.241,178.103z"/>
	</g>
</g>
</svg>
