<?xml version="1.0" encoding="utf-8"?>
<!-- Generator: Adobe Illustrator 16.0.0, SVG Export Plug-In . SVG Version: 6.00 Build 0)  -->
<!DOCTYPE svg PUBLIC "-//W3C//DTD SVG 1.1//EN" "http://www.w3.org/Graphics/SVG/1.1/DTD/svg11.dtd">
<svg version="1.1" id="Capa_1" xmlns="http://www.w3.org/2000/svg" xmlns:xlink="http://www.w3.org/1999/xlink" x="0px" y="0px"
	 width="435px" height="381px" viewBox="0 0 435 381" enable-background="new 0 0 435 381" xml:space="preserve">
<g>
	<g>
		<g>
			<path fill="#FCA035" d="M390.476,233.961c0.423-1.654,0.875-3.307,1.412-4.967c0.546-1.68-0.879-2.949-2.381-3.125
				c-0.966-0.115-1.804,0.025-2.573,0.289c-0.273-1.039-1.274-1.787-2.285-1.848c0.295-0.816,0.577-1.645,0.866-2.459
				c0.709,0.1,1.453-0.279,1.392-1.205c-0.044-0.723-0.044-1.445-0.083-2.168c1.964-5.039,3.697-9.725,5.35-13.842
				c5.278-13.145,9.013-48.454-3.931-82.662c-1.366-3.622-2.93-7.131-4.607-10.568c-5.356-22.222-16.942-41.899-33.856-57.884
				C307.541,13.599,244.274,0.031,188.059,9.932c-19.112,3.363-37.723,9.326-55.229,17.623
				c-23.578,8.408-45.264,23.324-60.248,41.691C54.54,91.363,44.888,119.48,45.799,147.459
				c-5.701,27.852-2.476,55.053,10.151,92.207c1.245,3.666,2.925,7.111,4.977,10.326c-0.066,0.279-0.085,0.59-0.031,0.932
				c0.387,2.463,0.886,4.871,1.441,7.238c-7.7-15.299-12.628-26.285-17.987-26.225c0,21.367,9.119,52.627,27.506,79.689
				c5.92,8.715,13.637,15.607,21.192,22.789c12.091,11.49,26.519,19.096,41.456,25.738c5.482,2.438,11.473,4.225,17.634,5.496
				c16.613,5.217,34.167,7.691,51.714,7.508c2.914-0.027,5.805-0.145,8.677-0.314c20.844,2.918,42.301,1.346,61.303-7.797
				c14.578-7.008,28.651-15.293,42.812-23.104c1.64-0.904,3.27-1.852,4.945-2.732c4.627-2.447,9.139-5.059,13.5-7.973
				c6.992-4.668,13.84-9.535,19.577-15.594c0.552-0.584,0.27-1.268-0.259-1.541c0.336-0.371,0.699-0.701,1.037-1.078
				c3.272-3.682,5.63-8.193,8.053-12.623c11.189-13.129,18.739-28.934,22.051-46.092c0.856,0.078,1.716-0.217,2.156-1.154
				c2.536-5.365,4.743-10.742,6.417-16.445C394.774,234.488,392.15,232.973,390.476,233.961z M220.856,348.83
				c-14.536,0.176-29.168-1.002-43.467-3.588c5.157,0.303,10.333,0.32,15.47,0.098c31.898-1.4,65.263-7.795,95.631-17.508
				c-13.339,6.268-27.133,11.262-40.241,15.023C239.246,345.434,230.088,347.418,220.856,348.83z M242.457,353.83
				c-11.965,2.533-24.088,4.168-36.134,4.514c-2.972-0.959-6.331-1.926-9.96-2.898c7.39-0.246,14.776-0.859,22.131-1.873
				c7.624,0.09,15.296-0.199,22.962-0.82C241.69,353.123,242.018,353.486,242.457,353.83z M248.907,49.283
				c8.436,1.436,16.734,3.408,24.859,5.879C266.934,53.379,259.554,51.923,248.907,49.283z M233.576,44.047
				c-15.999-1.43-31.931-0.797-47.646,1.576c15.991-4.572,32.612-6.874,49.24-6.084c6.312,0.299,12.576,1.139,18.771,2.385
				c0.935,0.744,2.557,0.846,3.715,0.971c0.841,0.092,1.711,0.232,2.574,0.428c1.431,0.322,2.85,0.702,4.255,1.124
				c13.727,4.11,29.498,15.913,41.339,16.726c1.931,0.994,3.854,1.994,5.753,3.016c8.346,4.482,16.467,9.729,23.321,16.273
				C305.102,59.81,269.546,47.264,233.576,44.047z M187.139,48.65c-0.512,0.105-1.051,0.19-1.556,0.299
				c-14.702,3.173-26.394,6.937-36.351,11.566c2.299-1.211,4.605-2.412,6.957-3.541c2.942-1.414,5.93-2.754,8.949-4.023
				C172.417,51.132,179.759,49.719,187.139,48.65z M347.176,82.628c0.965,2.099,2.098,4.698,3.468,7.983
				c-0.375-0.629-0.706-1.283-1.107-1.901c-6.351-9.784-15.197-17.499-24.948-23.772c-6.315-4.064-13.076-7.883-20.084-11.398
				c-0.401-0.538-0.806-1.064-1.26-1.535c-0.861-0.889-1.736-1.66-2.606-2.47C318.12,57.482,334.097,68.621,347.176,82.628z
				 M295.922,42.345c-0.206-0.362-0.498-0.693-0.985-0.921c-9.077-4.255-18.492-7.408-28.16-9.574
				c20.247,3.353,39.705,10.843,56.353,23.183c3.495,2.591,6.742,5.376,9.792,8.304C321.663,54.691,309.129,47.671,295.922,42.345z
				 M340.059,63.057c-2.474-2.641-5.07-5.177-7.808-7.584c-0.044-0.102-0.096-0.203-0.18-0.293
				c-14.532-15.505-35.363-26.521-56.051-33.371c-0.256-0.146-0.488-0.292-0.756-0.438c10.145,3.027,20.002,7.012,29.333,11.992
				c15.181,8.105,27.561,18.399,38.792,30.231C342.414,63.176,341.314,62.949,340.059,63.057z M275.864,24.568
				c8.179,2.833,16.153,6.256,23.771,10.381c0.315,0.168,0.597,0.368,0.905,0.539c-3.27-1.42-6.623-2.729-10.066-3.901
				c-8.6-2.927-17.443-4.894-26.396-6.142C267.936,25.184,271.863,24.894,275.864,24.568z M345.373,93.402
				c3.267,5.372,5.824,11.104,8.34,16.863c-17.693-24.888-32.464-34.41-53.233-44.784c-1.069-0.534-2.08-1.022-3.084-1.503
				C314.559,71.596,330.692,81.498,345.373,93.402z M342.144,284.275c-10.492,9.803-22.041,18.018-34.382,24.836
				C319.68,301.945,331.106,293.604,342.144,284.275z M345.995,286.91c-2.234,2.678-4.588,5.24-7.072,7.686
				c-2.978,2.816-6.101,5.518-9.332,8.115c-5.83,4.449-12.264,8.344-19.422,11.592c-4.075,1.846-8.231,3.504-12.415,5.07
				C315.335,311.133,331.639,300.486,345.995,286.91z M262.24,12.803c47.727,9.762,95.688,38.918,113.78,84.994
				c-4.727-7.404-10.121-14.389-16.009-21.021c-0.828-0.932-1.735-1.798-2.65-2.655c-12.816-18.797-32.589-33.865-52.307-43.989
				c-14.048-7.214-28.95-12.019-44.272-14.423c-4.094-1.145-8.423-2.033-12.664-2.502c-31.841-3.507-62.76-1.371-91.21,8.252
				c-2.08,0.316-4.159,0.641-6.231,1.064C186.085,9.478,224.145,5.01,262.24,12.803z M154.819,46.285
				c4.789-1.756,9.668-3.357,14.584-4.887c-0.092,0.443-0.113,1.021-0.159,1.968c-0.015,0.317,0.132,0.611,0.329,0.873
				c-6.788,2.837-13.356,6.187-19.896,9.625c-0.703,0.368-1.408,0.736-2.116,1.099c-11.366,3.857-22.275,8.701-32.119,15.141
				c2.466-2.262,4.986-4.463,7.563-6.602c1.692-1.406,3.383-2.737,5.071-4.029C136.407,54.045,145.549,49.68,154.819,46.285z
				 M105.555,85.992c-2.603,2.406-5.153,4.865-7.646,7.379c2.134-4.995,4.896-9.562,8.086-13.795
				c0.369-0.398,0.727-0.804,1.099-1.199c7.563-5.878,16.019-10.609,24.894-14.482C122.279,70.17,113.273,77.459,105.555,85.992z
				 M125.105,75.9c-6.834,5.789-13.156,12.488-19.801,20.324c-3.215,3.793-6.15,7.736-8.943,11.756
				c0.146-0.251,0.271-0.509,0.419-0.758C104.237,94.744,113.989,84.525,125.105,75.9z M57.036,112.672
				c-3.088,7.211-5.628,14.128-7.699,20.918c2.654-23.312,12.135-45.896,27.444-63.717c12.539-14.599,28.525-26.021,46.067-33.85
				c2.699-1.205,5.414-2.268,8.138-3.254c-10.485,5.702-20.533,12.6-30.004,20.932C82.078,70.335,66.957,89.506,57.036,112.672z
				 M90.876,104.023c-0.093,0.102-0.205,0.174-0.284,0.297c-3.199,5.025-6.191,10.158-8.986,15.383
				c-0.095-0.715-0.531-1.311-1.096-1.736c3.052-6.43,6.549-12.775,10.425-18.855c-0.247,0.911-0.526,1.807-0.733,2.738
				C90.022,102.658,90.338,103.455,90.876,104.023z M70.708,261c5.294,4.32,8.08,12.25,14.023,21.633
				c-6.005-7.111-11.359-14.703-15.558-22.975C69.68,260.107,70.178,260.568,70.708,261z M83.936,294.658
				c-2.625-3.58-5.094-7.135-7.287-10.736c-2.565-4.209-4.684-8.684-6.479-13.297c10.792,17.943,26.424,33.002,42.213,46.588
				c5.156,4.439,10.535,8.629,16.206,12.338c-4.81-2.348-9.532-4.861-14.069-7.676C102.777,314.596,92.28,305.402,83.936,294.658z
				 M137.316,338.787c-7.641-3.383-14.591-7.336-20.876-11.744c7.706,4.588,15.84,8.58,24.237,11.924
				C139.552,338.914,138.44,338.844,137.316,338.787z M126.603,321.975c-5.558-3.994-10.898-8.396-16.059-13.023
				c16.041,11.604,34.139,19.4,53.43,24.502c12.866,3.4,25.92,4.646,39.058,4.582c-8.837,0.752-17.698,1.203-26.524,1.398
				C158.974,338.021,142.082,333.1,126.603,321.975z M156.356,345.512c-1.353-0.359-2.635-0.783-3.95-1.178
				c1.349,0.033,2.681,0.104,4.035,0.125c6.954,2.092,13.971,3.807,20.942,5.121c3.39,0.643,6.822,1.201,10.281,1.691
				c-3.034-0.012-6.062-0.123-9.089-0.273C170.894,349.15,163.141,347.314,156.356,345.512z M181.84,368.09
				c2.525-0.078,4.967-0.232,7.341-0.432c1.393,0.408,2.763,0.861,4.171,1.238C189.496,368.756,185.657,368.486,181.84,368.09z
				 M204.424,368.965c-3.514-0.533-7.018-1.139-10.509-1.803c6.947-0.877,12.832-2.264,16.942-3.947
				c13.669-0.723,27.394-2.994,40.841-6.318c8.78,0.453,20.075-3.723,34.533-6.764C260.449,361.324,232.228,368.275,204.424,368.965
				z M277.522,359.846c-14.163,7.338-28.362,11.439-44.399,11.451c-1.63,0.004-3.261-0.037-4.887-0.09
				c24.148-3.586,46.854-11.934,68.484-23.236c2.07-0.463,4.13-0.945,6.138-1.51C294.465,351.033,285.987,355.459,277.522,359.846z
				 M358.037,296.219c-39.198,23.514-51.799,33.367-74.976,38.838c-0.17,0.043-0.338,0.104-0.507,0.148
				c14.942-6.434,29.704-14.369,42.978-23.998c12.113-7.611,22.715-17.293,31.187-29.947c5.301-7.01,9.816-14.539,13.294-22.635
				c0.266-0.617,0.266-1.201,0.118-1.711c0.158-0.344,0.292-0.699,0.446-1.043c1.017-1.471,2.038-2.934,3.055-4.4
				c0.812,0.152,1.656-0.117,2.121-1.074c0.314-0.648,0.629-1.295,0.944-1.943c-0.479,1.842-0.954,3.684-1.432,5.525
				c-0.603,2.342,2.529,3.979,4.002,2.258C373.924,270.551,367.449,284.32,358.037,296.219z"/>
		</g>
		<g>
			<g>
				<path d="M430.238,49.363c-0.128-4.301-6.183-5.072-7.396-0.943c-8.365,28.535-33.114,119.832-51.79,192.615
					c3.694,0.502,7.326,1.711,11.003,2.441c4.669,0.926,9.396,1.57,14.131,2.156c5.705-3.174,19.195,4.348,20.999-11.609
					C418.193,225.119,430.842,69.391,430.238,49.363z"/>
			</g>
			<g>
				<path d="M370.433,243.447c-12.28,47.945-21.785,87.367-21.977,94.613c-0.299,11.096,29.697,12.811,33.949-14.689
					c9.402-60.807,9.25-70.002,11.497-74.988C385.954,247.441,378.262,245.52,370.433,243.447z M370.35,316.268
					c-0.083,0.65-0.32,1.514-0.674,2.4c-0.311,1.068-0.834,2.1-1.597,2.836c-1.29,1.604-3.01,2.391-4.855,0.455
					c-0.203-0.207-0.295-0.469-0.44-0.705c-1.944-2.316-0.847-7.172,0.912-9.264c1.328-1.582,3.632-2.32,5.32-0.807
					C370.42,312.449,370.571,314.508,370.35,316.268z M373.17,284.076c-4.476-0.295-4.467-6.285-2.57-9.139
					c1.007-1.508,2.866-2.426,4.678-1.889c1.101,0.322,1.746,1.189,2.108,2.188C379.314,278.137,377.22,284.34,373.17,284.076z"/>
			</g>
		</g>
		<g>
			<path d="M49.252,163.595c8.473-6.686,20.629-13.368,16.071-33.399c-28.66-125.977-13.605-32.316-16.201,0.93
				c-0.233,2.998-4.316,3.604-5.505,0.842c-5.506-12.791-6.91-49.949-14.154-63.566c-2.708,16.719,1.167,84.087-8.445,65.391
				C19.194,130.242,7.913,44.5,6.643,75.06c-3.568,85.787-5.558,86.196,27.055,91.46c12.368,101.393,4.298,157.145,27.592,178.498
				c9.291,8.516,22.12,2.824,22.947-16.66C84.983,310.785,45.634,166.451,49.252,163.595z M69.692,330.592
				c-0.571,0.506-1.263,0.844-2.075,0.924c-1.731,0.172-3.379-0.977-4.306-2.445c-0.928-1.471-1.273-3.223-1.583-4.936
				c-0.448-2.457-0.858-4.98-0.443-7.443c0.599-3.543,3.236-6.602,6.907-4.795c3.962,1.951,3.374,9.324,3.548,12.838
				C71.845,326.844,71.168,329.285,69.692,330.592z"/>
		</g>
		<g>
			<path fill="#FFFFFF" d="M356.25,190.969c-0.071,74.26-59.33,133.961-132.812,133.795
				c-74.316-0.17-135.615-61.357-135.013-135.877C89.867,10.632,356.417,12.631,356.25,190.969z"/>
		</g>
	</g>
	<g>
		<path d="M129.19,116.357c0.208,0.74,0.415,1.521,0.628,2.326c0.688,2.597,1.462,5.519,2.607,8.229
			c-0.391-0.187-0.915-0.311-1.616-0.311c-1.365,0-4,0.488-4.2,2.312c-0.463,3.688,0.567,7.083,2.979,9.815
			c4.284,4.855,11.797,6.578,16.929,6.578c1.21,0,2.374-0.088,3.454-0.26c11.928-1.881,19.722-13.878,22.157-24.941
			c2.547-11.877-2.895-22.991-13.21-27.019c-1.955-0.802-4.178-1.181-6.603-1.154c3.451-4.973,5.951-11.37,7.447-19.085
			c0.847-4.646,0.776-8.683-0.196-11.945c-0.46-1.771-1.247-3.109-2.34-3.979c-0.906-1.047-2.258-1.62-3.834-1.62
			c-1.188,0-2.464,0.32-3.684,0.922c-1.623,0.788-2.752,2.23-3.749,3.502c-0.169,0.216-0.336,0.43-0.492,0.623
			c-0.493,0.594-1.181,1.471-1.601,2.376l-0.283,0.4c-3.023,5.271-4.497,11.161-5.921,16.857c-0.086,0.344-0.172,0.688-0.258,1.031
			c-0.032-1.119-0.052-2.216-0.06-3.302c-0.02-2.083,0.165-4.246,0.36-6.536c0.355-4.164,0.723-8.469-0.198-12.447
			c-0.13-0.563-0.69-1.875-3.057-1.875c-1.248,0-4.274,0.505-5.162,2.045c-2.692,4.998-3.111,11.238-3.48,16.743l-0.083,1.224
			c-0.48,6.738-0.375,13.599,0.314,20.385C126.637,103.396,127.434,109.961,129.19,116.357z M139.149,134.216
			c0.713,0,4.28-0.117,4.465-2.463c0.216-4.276-0.628-8.422-1.444-12.431c-0.198-0.973-0.396-1.941-0.58-2.923
			c-0.847-4.292-1.033-8.521-0.588-13.585c0.302-0.135,0.49-0.281,0.63-0.41c2.412-2.323,5.325-4.697,8.651-4.697
			c0.25,0,0.503,0.013,0.751,0.039c2.26,0.254,4.834,1.866,6.884,4.31c3.845,4.604,4.826,11.474,2.618,18.404
			c-1.805,6.057-4.959,11.504-8.445,14.578c-1.965,1.756-4.081,2.646-6.286,2.646c-2.896,0-5.64-1.487-7.898-3.596
			C138.222,134.165,138.625,134.216,139.149,134.216z M153.843,67.834c-0.66,3.08-1.915,6.108-3.128,9.038l-0.268,0.647
			c-2.017,4.729-4.495,8.981-7.792,13.319c0.203-1.081,0.42-2.159,0.651-3.231c1.515-6.712,3.164-12.056,5.186-16.81
			c0.254-0.591,0.503-1.186,0.752-1.778c0.588-1.406,1.144-2.733,1.769-3.995c0.076-0.151,0.17-0.35,0.28-0.582
			c1.337-2.817,2.085-3.747,2.473-4.038c0.026,0.036,0.057,0.08,0.091,0.135C154.575,61.654,154.571,64.646,153.843,67.834z"/>
		<path d="M179.738,139.634c1.75,0,2.224-0.198,2.423-0.282c0.418-0.191,0.823-0.381,1.228-0.571c0.355-0.166,0.709-0.333,1.074-0.5
			c1.295-0.278,2.58-0.595,3.864-0.911c1.99-0.49,4.046-0.997,6.068-1.33c0.354-0.016,0.704-0.029,1.052-0.042
			c1.128-0.043,2.295-0.087,3.423-0.227c2.059-0.204,3.667-1.499,3.743-3.013c0.025-0.51-0.107-2.218-2.885-2.775
			c-1.54-0.298-3.218-0.45-4.991-0.453c-0.028-2.82-0.334-5.688-0.631-8.476c-0.203-1.899-0.412-3.864-0.52-5.729
			c-0.913-15.939-0.02-31.977,2.738-49.091c0.023-0.198,0.048-0.375,0.07-0.534c0.019-0.134,0.037-0.267,0.053-0.398
			c0.079-0.01,0.159-0.021,0.238-0.031c1.688-0.221,3.435-0.449,5.186-0.999c2.26-0.751,2.416-2.134,2.377-2.693
			c-0.038-0.55-0.373-1.877-2.697-2.311c-1.104-0.188-2.291-0.283-3.526-0.283c-6.884,0-15.393,3.058-20.691,7.435
			c-1.026,0.847-0.884,1.798-0.775,2.168c0.323,1.096,1.545,1.616,2.581,1.738l0.248,0.009c0.052,0,0.104-0.176,0.156-0.172
			c0.13,0.012,0.26-0.162,0.39-0.162h0.042c0.112,0,0.255,0.195,0.42,0.195c2.405,0,3.473-0.303,3.986-0.712
			c0.087-0.032,0.175-0.018,0.263-0.049c-0.229,1.141-0.45,2.627-0.691,4.502c-0.056,0.438-0.099,0.782-0.127,0.949
			c-0.537,3.061-0.978,6.188-1.405,9.208l-0.127,0.9c-0.955,7.535-1.547,15.654-1.811,24.832c-0.003,0.18,0.467,16.242,1.82,21.984
			c-2.645,1.094-4.925,2.597-6.658,4.395c-0.528,0.548-0.684,1.293-0.406,1.945C175.565,138.921,176.337,139.634,179.738,139.634z
			 M187.197,67.043c-0.001,0-0.001,0.001-0.002,0.002v-0.001C187.195,67.044,187.196,67.043,187.197,67.043z"/>
		<path d="M201.44,104.245c-0.492,0.552-0.624,1.274-0.354,1.935c0.437,1.067,1.83,1.568,3.117,1.803
			c-0.105,3.911,0.134,7.67,0.729,11.461c1.167,6.941,3.74,15.185,13.364,17.326c1.811,0.386,3.776,0.589,5.685,0.589
			c7.184,0,12.322-2.764,14.076-7.528l0.298-0.835l-0.445-0.667c-0.461-0.689-1.291-0.946-3.06-0.946
			c-1.232,0-1.627,0.144-1.838,0.252c-2.42,1.052-5.521,2.247-8.152,2.247c-1.57,0-2.728-0.423-3.541-1.292
			c-2.164-2.314-2.854-7.529-3.084-9.271c-0.815-5.396-0.758-11.44,0.179-18.46c0.417-0.16,0.848-0.31,1.261-0.452
			c2.5-0.818,4.97-0.85,7.585-0.882c1.526-0.02,3.104-0.039,4.69-0.218c0.023-0.002,2.333-0.254,2.667-1.871
			c0.131-0.635-0.084-1.505-1.087-2.049c-3.923-2.104-8.795-2.608-14.085-1.486c0.591-3.562,1.273-7.118,1.937-10.577l0.486-2.543
			c0.273-1.327,0.605-2.727,0.948-4.168c0.846-3.56,1.794-7.552,2.032-11.36c2.59-0.691,5.263-1.39,7.899-1.635
			c0.691-0.059,1.394-0.088,2.149-0.088c2.417,0,4.904,0.31,7.31,0.608c2.474,0.308,5.234,0.625,7.79,0.625
			c0.986,0,2.004-0.046,3.004-0.14V64.62c0-0.052,2.497-0.328,3.009-1.657c0.265-0.686-0.032-1.438-0.629-1.979
			c-3.271-2.861-8.671-4.252-16.407-4.252c-2.354,0-4.634,0.126-6.527,0.249c-3.333,0.212-6.23,0.512-8.791,0.913
			c-0.815-0.726-2.162-1.134-3.849-1.134c-0.9,0-3.103,0.139-4.088,1.425c-0.729,0.962-1.336,1.888-1.844,2.818
			c-1.523,0.882-2.674,1.912-3.422,3.067l-0.061,0.102c-0.305,0.564-0.315,1.2-0.025,1.744c0.22,0.414,0.566,0.695,0.977,0.889
			c-1.735,5.032-2.714,10.656-3.588,15.676c-0.349,2.006-0.679,3.9-1.037,5.649c-0.975,4.836-1.668,9.099-2.115,13.008
			C203.309,102.263,202.292,103.263,201.44,104.245z"/>
		<path d="M251.649,134.904c1.104,2.29,3.379,3.829,5.663,3.829c0.4,0,0.799-0.047,1.181-0.139c4.741-1.116,4.893-7.5,4.942-9.602
			c0.229-10.58,2.617-21.145,7.094-31.385c2.343-5.204,5.083-10.023,8.146-14.329c0.603-0.853,1.149-1.684,1.681-2.493
			c1.562-2.378,2.912-4.432,5.26-6.285c2.402-1.904,5.692-4.514,8.684-4.514c0.587,0,1.126,0.101,1.666,0.313
			c0.334,0.127,0.538,0.325,0.679,0.664c1.038,2.48-1.82,8.962-3.355,12.443c-0.58,1.316-1.038,2.355-1.272,3.078
			c-4.109,12.746-7.264,24.204-9.646,35.027c-0.113,0.511-0.242,1.074-0.381,1.683c-1.749,7.652-5.004,21.896-0.003,28.885
			c1.666,2.327,4.076,3.671,7.101,3.985c0.137,0.02,0.437,0.062,0.746,0.062c1.344,0,1.851-0.754,2.029-1.171
			c0.658-1.403,0.731-3.285,0.803-5.105c0.032-0.817,0.062-1.589,0.144-2.146c0.165-1.026,0.19-2.127,0.223-3.521
			c0.117-4.984,0.334-14.262,7.125-39.119c0.576-2.083,1.194-4.179,1.816-6.286c2.031-6.881,4.131-13.997,4.874-21.189
			c0.395-3.866-0.832-7.593-3.453-10.495c-2.655-2.94-6.403-4.626-10.284-4.626c-1.611,0-3.206,0.29-4.741,0.863
			c-3.174,1.193-6.301,3.286-9.577,6.418c-2.147,2.123-4.482,4.567-6.576,7.257l1.974-7.854c0.307-1.25,0.655-2.666,0.417-4.146
			c-0.317-1.639-1.514-3.42-3.471-3.707c-1.459-0.214-2.83,0.376-4.223,1.759c-2.762,2.706-4.329,6.268-5.607,9.708
			c-6.72,17.819-10.326,36.383-10.718,55.189C250.562,129.909,250.53,132.587,251.649,134.904z"/>
		<path d="M223.104,220.093c0.262-1.172,0.065-2.584-0.125-3.95c-0.097-0.7-0.189-1.361-0.194-1.865
			c-0.021-0.847-0.162-1.72-0.341-2.825c-0.63-3.896-1.804-11.147-0.113-31.514c0.147-1.85,0.335-3.718,0.524-5.596
			c0.556-5.536,1.131-11.261,0.711-16.87c-0.379-4.747-1.044-6.921-6.177-9.347c-1.79-0.845-3.539-1.273-5.198-1.273
			c-6.806,0-10.587,6.84-12.89,12.609c-0.09-0.825-0.232-1.651-0.46-2.475c-1.096-3.847-4.188-6.534-7.52-6.534
			c-1.375,0-2.702,0.446-3.937,1.319c-2.563,1.785-5.219,5.959-7.271,10.161l0.352-5.647c0.057-0.998,0.128-2.241-0.298-3.428
			c-0.619-1.573-1.965-2.59-3.43-2.59l-0.12,0.002c-1.237,0.049-2.343,0.764-3.281,2.117c-1.799,2.563-2.516,5.613-3.021,8.52
			c-2.667,14.926-2.787,29.981-0.356,44.76c0.271,1.561,0.643,3.696,1.896,5.402c1.474,2.008,4.21,2.893,6.252,1.987
			c3.759-1.656,2.921-6.842,2.646-8.549c-1.352-8.256-1.021-16.812,0.978-25.414c1.069-4.387,2.502-8.529,4.259-12.311
			c0.159-0.342,0.354-0.866,0.625-1.593c2.679-7.198,3.968-7.976,4.398-7.976c0.02,0,0.099,0.024,0.247,0.147
			c1.737,1.403,1.238,7.172,0.97,10.271c-0.086,0.997-0.161,1.858-0.181,2.557c-0.136,4.17-0.431,8.385-0.717,12.462
			c-0.459,6.553-0.935,13.328-0.762,20.062c-0.012,1.193,0.115,2.693,1.188,3.687c0.607,0.588,1.426,0.912,2.305,0.911
			c1.531,0,3.088-0.971,3.758-2.305c0.856-1.54,0.783-3.23,0.718-4.722l-0.019-0.449c-0.395-6.9,1.2-13.747,2.745-20.375
			c1.921-8.422,3.908-17.13,8.812-24.309c0.978-1.412,1.836-2.129,2.55-2.129l0.104,0.004c0.74,0.036,0.953,0.305,1.034,0.406
			c0.777,0.978,0.276,3.743,0.007,5.229c-0.056,0.31-0.108,0.598-0.151,0.871c-1.847,12.393-2.929,23.767-3.407,35.804l-0.054,1.374
			c-0.251,6.152-0.72,17.758,4.032,22.707c1.547,1.611,3.501,2.582,5.806,2.582c0.001,0,0.001,0,0.002,0
			c0.264,0,0.536-0.164,0.766-0.184C222.542,221.74,223,220.698,223.104,220.093z M177.957,172.404c0,0.002-0.001,0.005-0.001,0.007
			C177.956,172.409,177.956,172.406,177.957,172.404L177.957,172.404z"/>
		<path d="M244.587,169.932c0.264-1.039,0.577-2.133,0.9-3.26c0.785-2.739,1.662-5.804,2.01-8.775
			c2.076-0.452,4.053-0.862,6.059-0.957c2.458-0.104,4.865,0.315,7.423,0.752c2.668,0.458,5.448,0.929,8.252,0.77
			c0.337-0.008,2.387-0.105,2.929-1.423c0.266-0.646,0.107-1.366-0.431-1.899c-3.847-3.69-10.965-4.117-15.985-4.117
			c-0.789,0-1.538,0.012-2.226,0.024c-1.719,0.031-4.227,0.105-6.881,0.391c-0.852-0.742-2.221-1.031-3.463-1.031
			c-0.844,0-2.38,0.142-3.187,1.101c-0.603,0.726-1.111,1.427-1.545,2.132c-1.248,0.66-2.208,1.455-2.858,2.366l-0.063,0.097
			c-0.318,0.527-0.354,1.138-0.098,1.676c0.15,0.317,0.373,0.557,0.638,0.739c-1.513,3.89-2.475,8.229-3.335,12.109
			c-0.349,1.576-0.68,3.066-1.026,4.438c-0.94,3.771-1.641,7.099-2.136,10.15c-1.032,0.821-1.856,1.564-2.556,2.301
			c-0.489,0.498-0.651,1.203-0.423,1.842c0.325,0.91,1.359,1.406,2.373,1.677c-0.206,3.023-0.146,5.951,0.182,8.921
			c0.632,5.207,2.376,12.374,10.205,14.495c1.768,0.462,3.677,0.705,5.521,0.705c5.405,0,9.237-2.029,10.766-5.659l0.345-0.824
			l-0.442-0.695c-0.205-0.322-0.63-0.992-3.083-0.992c-0.526,0-0.846,0.044-1.122,0.159c-1.812,0.691-4.138,1.479-6.122,1.479
			c-1.319,0-2.254-0.345-2.857-1.052c-1.571-1.845-1.921-5.93-2.039-7.301c-0.443-4.233-0.19-8.941,0.776-14.373
			c0.278-0.089,0.558-0.172,0.827-0.252c1.142-0.316,2.365-0.457,3.965-0.457c0.665,0,1.329,0.021,1.994,0.044
			c1.248,0.041,2.544,0.079,3.756-0.003c0.021-0.001,2.083-0.112,2.466-1.62c0.154-0.605-0.007-1.449-0.929-2.006
			c-2.996-1.786-6.733-2.404-10.883-1.799c0.57-2.644,1.202-5.278,1.817-7.845L244.587,169.932z"/>
		<path d="M144.721,271.184c-1.893-1.861-3.681-3.619-5.34-5.465l-0.574-0.633c-3.333-3.669-6.78-7.463-9.202-11.541
			c-1.96-3.359-2.632-9.985,0.584-12.831c1.595,0.186,3.812,0.938,4.242,3.656c0.111,0.637-0.383,1.774-0.78,2.688
			c-0.663,1.525-1.897,4.364,0.736,5.597c0.787,0.366,1.573,0.552,2.334,0.552h0c2.104,0,3.911-1.41,4.958-3.868
			c1.332-3.127,1.348-7.781-0.938-10.161c-1.737-1.79-4.223-2.927-7.011-3.207c-1.104-0.265-2.265-0.398-3.452-0.398
			c-3.779,0-7.63,1.343-10.574,3.69c-6.674,5.416-6.371,13.182,0.902,23.084c3.07,4.155,6.605,7.963,10.024,11.644
			c3.253,3.504,6.618,7.127,9.487,10.965c3.596,4.876,5.026,9.336,4.254,13.246c-0.992,4.851-4.104,7.633-8.538,7.633
			c-3.36,0-6.819-1.672-9.028-4.364c-1.495-1.822-3.093-4.921-2.215-9.33c0.303-1.496,1.266-3.453,3.01-4.058
			c0.169-0.062,0.749-0.141,1.172-0.198c1.856-0.252,4.663-0.634,4.917-2.889c0.1-0.81-0.129-1.587-0.662-2.249
			c-1.409-1.748-4.389-2.039-4.551-2.054c-3.778-0.242-8.218,2.968-10.367,6.019c-3.008,4.388-4.74,11.558-1.432,16.935
			c4.151,6.695,10.858,10.383,18.886,10.383c3.283,0,6.66-0.605,10.034-1.799c12.198-4.284,14.985-14.631,12.336-22.984
			C155.596,281.876,150.067,276.44,144.721,271.184z"/>
		<path d="M216.176,306.564c-1.758-4.625-3.575-9.406-4.422-13.379c-1.042-4.655-1.519-9.271-1.814-13.326
			c0.666,0.08,1.223,0.258,1.664,0.532c0.19,0.118,0.696,0.432,2.288,0.432c2.324,0,3.75-0.489,4.239-1.455
			c0.303-0.599,0.239-1.289-0.198-1.882c-1.734-2.219-4.514-3.275-8.379-3.141c-0.016-0.316-0.032-0.632-0.047-0.946
			c-0.042-0.853-0.083-1.697-0.138-2.526c-0.366-6.554-0.454-13.413-0.267-20.965c0.042-1.537,0.265-3.318,0.501-5.206
			c0.649-5.186,1.385-11.064-1.285-15.254c-0.421-0.59-1.144-0.877-2.208-0.877c-0.323,0-0.65,0.026-0.955,0.075
			c-0.341-0.094-0.685-0.111-0.968-0.111c-1.246,0-3.178,0.404-3.572,0.549c-0.932,0.3-1.839,1.242-3.001,2.666l-0.14,0.173
			c-2.017,2.258-3.526,4.966-4.985,7.585l-0.513,0.918c-3.847,6.778-7.157,14.081-9.835,21.698
			c-2.688,7.527-4.413,14.453-5.261,21.101c-0.081,0.448-0.145,0.93-0.209,1.418c-0.012,0.093-0.024,0.187-0.037,0.28
			c-2.35,0.738-4.15,1.098-5.487,1.098c-1.926,0-2.163-0.744-2.267-1.071c-0.246-0.833-1.059-1.826-3.536-1.826
			c-0.508,0-3.089,0.062-4.001,1.288c-0.338,0.455-0.441,1.02-0.292,1.512c0.78,2.865,2.935,6.279,8.773,6.279
			c1.751,0,3.766-0.297,6.113-0.903c-0.457,5.739-0.427,12.459,2.125,17.553c0.525,1.123,1.955,1.148,2.432,1.148
			c0.001,0,0.003,0,0.005,0c1.498,0,2.427-0.457,2.763-1.316l0.042-0.134c0.773-2.639,0.744-5.317,0.714-7.901
			c-0.012-1.084-0.024-2.206,0.025-3.275c0.154-2.925,0.443-5.986,0.858-9.11c1.972-0.799,3.977-1.652,5.923-2.48
			c2.306-0.98,4.512-1.921,6.636-2.764c0.927,7.788,4.183,25.853,14.878,34.748c0.815,0.608,2.701,0.674,3.474,0.674
			c1.763,0,2.794-0.327,3.342-1.062c0.348-0.467,0.452-1.058,0.285-1.619C218.617,312.984,217.431,309.865,216.176,306.564z
			 M190.834,263.514c1.629-4.567,3.536-9.088,5.79-13.716c-0.69,7.514-0.335,15.159,0.011,22.582l0.018,0.29
			c0.091,1.498,0.185,3.037,0.307,4.597c-3.62,1.272-7.328,2.751-10.948,4.208C187.173,275.399,188.792,269.368,190.834,263.514z"/>
		<path d="M260.413,263.236c-1.759-1.161-3.909-1.981-6.255-2.407c4.348-4.213,8.036-10.007,10.995-17.286
			c1.728-4.395,2.439-8.368,2.117-11.758c-0.11-1.828-0.624-3.293-1.527-4.356c-0.895-1.568-2.655-2.463-4.868-2.463
			c-0.775,0-1.577,0.109-2.376,0.324c-1.742,0.461-3.128,1.657-4.352,2.712c-0.208,0.179-0.414,0.357-0.603,0.516
			c-0.598,0.486-1.442,1.212-2.031,2.021l-0.354,0.339c-3.984,4.587-6.568,10.081-9.066,15.394c-0.151,0.32-0.301,0.64-0.452,0.96
			c0.186-1.11,0.378-2.191,0.578-3.249c0.383-2.048,0.982-4.135,1.617-6.345c1.153-4.016,2.345-8.168,2.211-12.249
			c-0.02-0.604-0.39-2.578-4.286-2.578c-1.046,0-2.929,0.146-3.811,1.158c-3.607,4.383-5.224,10.422-6.651,15.751l-0.319,1.188
			c-1.771,6.521-2.993,13.272-3.63,20.061c-0.598,6.143-1.084,12.737-0.598,19.354c0.061,0.766,0.113,1.57,0.167,2.401
			c0.173,2.679,0.368,5.692,0.966,8.572c-0.876-0.649-2.227-0.741-2.916-0.741c-2.214,0-2.953,0.876-3.176,1.589
			c-1.291,3.904-0.727,7.762,1.632,11.155c3.99,5.741,12.162,8.968,18.17,9.188c0.265,0.01,0.527,0.015,0.79,0.015
			c7.825,0,19.268-5.289,25.769-20.203C272.947,281.138,269.756,269.183,260.413,263.236z M260.316,237.479
			c-1.246,2.897-3.064,5.631-4.824,8.273l-0.38,0.572c-2.892,4.248-6.144,7.941-10.22,11.562c0.407-1.018,0.828-2.034,1.262-3.042
			c2.787-6.299,5.438-11.224,8.337-15.492c0.363-0.528,0.721-1.062,1.079-1.595c0.851-1.268,1.654-2.465,2.51-3.583
			c0.104-0.135,0.236-0.312,0.39-0.52c1.855-2.503,2.769-3.271,3.205-3.48c0.019,0.04,0.041,0.09,0.063,0.149
			C262.228,231.556,261.646,234.49,260.316,237.479z M237.929,298.213c1.038-4.154,1.01-8.385,0.983-12.476
			c-0.006-0.992-0.013-1.981-0.004-2.979c-0.001-4.375,0.634-8.559,2.049-13.442c0.259-0.061,0.487-0.151,0.698-0.279
			c2.22-1.431,5.133-3.073,7.985-3.073c0.736,0,1.458,0.109,2.141,0.321c2.167,0.685,4.38,2.763,5.919,5.556
			c2.883,5.261,2.519,12.19-0.988,18.562c-2.939,5.593-7.086,10.327-11.102,12.67c-1.721,1.02-3.438,1.537-5.106,1.537
			c-3.454,0-6.471-2.188-8.662-5.229c1.074,0.519,2.571,0.552,2.931,0.552C236.981,299.932,237.702,299.021,237.929,298.213z"/>
		<path d="M328.665,238.664c-4.831-4.847-14.102-5.526-22.532-5.553l-0.755-0.002c-3.014,0-5.662,0.103-8.061,0.312
			c-1.006-1.023-2.843-1.415-4.403-1.415c-1.143,0-2.682,0.201-3.53,1.164c-0.793,0.911-1.46,1.794-2.031,2.687
			c-1.581,0.776-2.798,1.726-3.623,2.827l-0.066,0.096c-0.344,0.543-0.397,1.178-0.145,1.741c0.191,0.428,0.517,0.73,0.913,0.952
			c-2.075,4.903-3.436,10.449-4.65,15.398c-0.485,1.977-0.943,3.844-1.419,5.564c-1.304,4.763-2.286,8.969-2.997,12.832
			c-1.371,1.035-2.454,1.964-3.368,2.884c-0.528,0.517-0.709,1.229-0.484,1.906c0.364,1.095,1.719,1.689,2.986,2.011
			c-0.372,3.896-0.389,7.663-0.054,11.484c0.691,7.005,2.696,15.403,12.153,18.199c2.343,0.668,4.971,1.035,7.4,1.035
			c6.336,0,10.887-2.367,12.788-6.612l0.365-0.848l-0.44-0.709c-0.192-0.31-0.703-1.133-3.723-1.133
			c-0.485,0-0.796,0.042-1.062,0.146c-2.251,0.802-5.149,1.716-7.669,1.716c-1.9,0-3.237-0.508-4.088-1.553
			c-2-2.456-2.333-7.706-2.444-9.458c-0.445-5.44,0.025-11.467,1.438-18.406c0.415-0.128,0.848-0.245,1.289-0.365
			c1.305-0.33,2.695-0.484,4.376-0.484c1.074,0,2.133,0.06,3.254,0.122c1.52,0.085,3.188,0.172,4.698,0.103
			c0.023,0,2.344-0.104,2.783-1.688c0.172-0.623,0.016-1.504-0.946-2.115c-3.776-2.37-8.574-3.208-13.95-2.444
			c0.825-3.48,1.739-6.951,2.629-10.327l0.683-2.598c0.362-1.304,0.79-2.676,1.229-4.089c1.087-3.495,2.307-7.415,2.803-11.199
			c2.741-0.536,5.342-1.028,7.994-1.094l0.386-0.004c3.001,0,6.059,0.539,9.015,1.113c3.327,0.646,6.78,1.139,10.286,1.139h0.001
			c0.459,0,2.781-0.016,3.385-1.436C329.358,239.912,329.206,239.226,328.665,238.664z"/>
	</g>
</g>
</svg>
