<?xml version="1.0" encoding="utf-8"?>
<!-- Generator: Adobe Illustrator 16.0.0, SVG Export Plug-In . SVG Version: 6.00 Build 0)  -->
<!DOCTYPE svg PUBLIC "-//W3C//DTD SVG 1.1//EN" "http://www.w3.org/Graphics/SVG/1.1/DTD/svg11.dtd">
<svg version="1.1" id="Capa_1" xmlns="http://www.w3.org/2000/svg" xmlns:xlink="http://www.w3.org/1999/xlink" x="0px" y="0px"
	 width="91.505px" height="99.322px" viewBox="0 0 91.505 99.322" enable-background="new 0 0 91.505 99.322" xml:space="preserve">
<g opacity="0.8">
	<g>
		<g>
			<path fill="#FCA035" d="M39.895,68.94c-15.21,0-27.584-12.375-27.584-27.586c0-15.21,12.374-27.585,27.584-27.585
				c15.211,0,27.586,12.375,27.586,27.585C67.48,56.566,55.105,68.94,39.895,68.94z M39.895,20.39
				c-11.56,0-20.964,9.405-20.964,20.965c0,11.561,9.404,20.965,20.964,20.965c11.561,0,20.965-9.406,20.965-20.965
				S51.455,20.39,39.895,20.39z"/>
			<g>
				<path fill="none" d="M39.895,68.94c-15.21,0-27.584-12.375-27.584-27.586c0-15.21,12.374-27.585,27.584-27.585
					c15.211,0,27.586,12.375,27.586,27.585C67.48,56.566,55.105,68.94,39.895,68.94z M39.895,20.39
					c-11.56,0-20.964,9.405-20.964,20.965c0,11.561,9.404,20.965,20.964,20.965c11.561,0,20.965-9.406,20.965-20.965
					S51.455,20.39,39.895,20.39z"/>
				<g>
					<path fill="#FCAB4C" d="M35.842,22.085c-0.117,0.021-0.236,0.042-0.352,0.063c0.109-0.032,0.248-0.067,0.405-0.104
						c0.159-0.033,0.339-0.061,0.53-0.093c-1.866,0.235-3.975,0.929-5.826,1.947c-0.926,0.511-1.787,1.095-2.55,1.697
						c-0.758,0.61-1.413,1.24-1.953,1.822c-0.403,0.408-0.771,0.806-1.021,1.134c-0.26,0.319-0.411,0.558-0.42,0.621
						c-0.015,0.123,0.531-0.515,1.334-1.327c0.175-0.181,0.395-0.376,0.533-0.495c0.615-0.534,1.336-1.082,2.14-1.622
						c0.804-0.544,1.702-1.067,2.686-1.525c-0.19,0.087-0.384,0.177-0.579,0.266c-0.189,0.099-0.38,0.198-0.565,0.294
						c0.277-0.149,0.547-0.306,0.839-0.44c0.287-0.142,0.58-0.292,0.902-0.43c-0.072,0.021-0.16,0.047-0.234,0.069
						c0.992-0.431,2.197-0.868,3.352-1.175c1.155-0.315,2.255-0.499,2.995-0.634c0.745-0.116,0.989-0.204,0.769-0.253
						c-0.221-0.043-0.91-0.079-2.011,0.046c0,0-0.243,0.034-0.486,0.068c-0.122,0.016-0.244,0.033-0.336,0.045
						C35.902,22.07,35.842,22.085,35.842,22.085z"/>
					<path fill="#FCAB4C" d="M31.773,23.031c1.25-0.511,2.498-0.873,3.766-1.111l0.254-0.038l-0.104-0.073l-0.023,0.011
						c-1.168,0.327-3.073,0.934-4.688,1.804c0,0-0.144,0.077-0.287,0.155c-0.145,0.077-0.287,0.156-0.287,0.156
						c-0.264,0.167-0.434,0.287-0.48,0.337c-0.055,0.057,0.047,0.024,0.254-0.074c0.104-0.053,0.233-0.118,0.384-0.193
						c0.153-0.075,0.327-0.159,0.517-0.251c0,0,0.055-0.028,0.137-0.069c0.08-0.042,0.189-0.096,0.303-0.143
						c0.223-0.099,0.445-0.198,0.445-0.198c1.093-0.459,2.543-0.937,3.906-1.23c1.359-0.307,2.621-0.423,3.282-0.529
						c0.298-0.045,0.034-0.085-0.032-0.126c0.045-0.028-0.16-0.067-0.526-0.056c-0.184,0.004-0.407,0.012-0.66,0.024
						c-0.253,0.017-0.532,0.054-0.832,0.089c-1.2,0.164-2.192,0.477-2.257,0.556c-0.195,0.052-0.398,0.104-0.594,0.155
						c0.151-0.05,0.305-0.101,0.457-0.153c-0.312,0.141-1.361,0.457-2.099,0.799c0,0-0.071,0.029-0.177,0.072
						c-0.104,0.045-0.248,0.097-0.383,0.165c-0.276,0.129-0.552,0.259-0.552,0.259l0.683-0.149c0,0,0.144-0.066,0.288-0.127
						c0.145-0.062,0.288-0.125,0.288-0.125c-0.047,0.012-0.137,0.038-0.129,0.034c1.1-0.476,2.174-0.847,3.462-1.127
						c0,0,0.406-0.086,0.812-0.172c0.411-0.066,0.821-0.131,0.821-0.131c0.223-0.046,0.322-0.061,0.305-0.079
						c-0.017-0.015-0.152-0.027-0.4-0.005l-0.74,0.063c0.112-0.008,0.223-0.016,0.336-0.023c-1.704,0.178-3.462,0.657-5.046,1.271
						c-0.251,0.095-0.544,0.243-0.668,0.312C31.406,23.173,31.519,23.14,31.773,23.031z"/>
					<g>
						<path fill="#FCAB4C" d="M37.582,21.424c0.276-0.03,0.545-0.029,0.939-0.064c0.095-0.014,0.143-0.021,0.168-0.024
							c-0.148,0.004-0.346,0.01-0.544,0.016C37.754,21.357,37.557,21.411,37.582,21.424z"/>
						<path fill="#FCAB4C" d="M38.689,21.335c0.137-0.006,0.227-0.005,0.227-0.005c-0.053-0.003-0.104-0.003-0.152-0.003
							c-0.043,0.003-0.045,0.003-0.045,0.003S38.718,21.33,38.689,21.335z"/>
						<path fill="#FCAB4C" d="M51.929,57.05c2.086-1.583,3.861-3.589,5.179-5.866c1.319-2.276,2.176-4.822,2.496-7.438
							c0.023-0.175,0.035-0.323,0.027-0.333c-0.007-0.01-0.033,0.125-0.053,0.287c-0.316,2.614-1.165,5.151-2.474,7.42
							c-1.306,2.271-3.067,4.275-5.144,5.862c-0.139,0.108-0.248,0.205-0.264,0.225C51.697,57.221,51.799,57.15,51.929,57.05z"/>
						<path fill="#FCAB4C" d="M49.904,23.25c0.115,0.059,0.117,0.048,0.002-0.025c-0.097-0.066-0.281-0.161-0.398-0.213
							c-0.102-0.044-0.103-0.033-0.002,0.025C49.626,23.102,49.807,23.198,49.904,23.25z"/>
						<path fill="#FCAB4C" d="M51.295,23.25c0.34,0.207,0.669,0.412,0.973,0.626c0.155,0.104,0.306,0.206,0.453,0.306
							c0.145,0.105,0.283,0.208,0.42,0.308c0.102,0.074,0.211,0.163,0.293,0.231c-0.029-0.04,0.104,0.04,0.322,0.226
							c2.203,1.781,4.125,4.102,5.498,6.772c0.688,1.334,1.24,2.751,1.637,4.217c0.393,1.467,0.631,2.978,0.709,4.492
							c0.013,0.039,0.025,0.119,0.04,0.255c0.054,0.418,0.079,1.266,0.011,2.141l-0.06,0.66c-0.283,2.66-1.056,5.257-2.27,7.615
							c-0.225,0.494-0.524,1.049-0.876,1.638c-0.578,0.992-1.252,1.932-1.988,2.828c-0.739,0.894-1.553,1.74-2.451,2.511
							c0.119-0.088,0.195-0.139,0.202-0.128c-0.007,0.027-0.109,0.135-0.272,0.289c-0.164,0.153-0.398,0.336-0.649,0.536
							c-0.251,0.207-0.521,0.387-0.78,0.577c0.771-0.518,1.49-1.115,2.191-1.72c0.1-0.092,0.189-0.175,0.273-0.252
							c0.75-0.691,1.443-1.46,2.101-2.276c2.858-3.58,4.458-7.949,4.681-12.286c0.243-4.338-0.846-8.646-3.016-12.261
							c-0.074-0.118-0.182-0.305-0.235-0.416c-0.035-0.075-0.019-0.067,0.062,0.064c1.438,2.24,2.398,4.592,2.965,7.126
							c0.557,2.538,0.704,5.287,0.17,8.319c-0.316,1.803-0.879,3.557-1.629,5.226c-0.755,1.669-1.732,3.236-2.873,4.682
							c-1.155,1.433-2.482,2.741-3.969,3.869c-1.492,1.116-3.121,2.088-4.881,2.81c-0.918,0.386-1.862,0.672-2.805,0.936
							c-0.949,0.231-1.901,0.439-2.863,0.549c-1.92,0.254-3.852,0.247-5.764,0.007c-3.823-0.472-7.562-1.949-10.812-4.408
							c-4.404-3.316-7.4-8.179-8.485-13.413c-0.532-2.622-0.604-5.318-0.216-7.965c0.402-2.644,1.273-5.227,2.584-7.595
							c0.975-1.78,2.184-3.322,3.246-4.375c1.053-1.066,1.926-1.67,2.178-1.772c0.15-0.055,0.071,0.085-0.191,0.38
							c-0.141,0.152-0.312,0.34-0.517,0.562c-0.206,0.231-0.462,0.485-0.724,0.797c0.219-0.238,0.454-0.455,0.688-0.676
							c0,0,0.069-0.065,0.174-0.162c0.104-0.099,0.248-0.224,0.396-0.345c0.292-0.246,0.583-0.491,0.583-0.491
							c1.127-0.906,2.199-1.523,2.891-1.865c0,0,0.24-0.115,0.48-0.23c0.236-0.119,0.482-0.22,0.482-0.22
							c0.333-0.124,0.703-0.291,1.111-0.428c0.201-0.073,0.408-0.147,0.617-0.222c0.211-0.065,0.424-0.131,0.636-0.197
							c0.845-0.262,1.677-0.437,2.241-0.511l-0.227,0.125l0.26-0.056c0.861-0.182,1.451-0.244,1.661-0.215L35.9,20.528
							c-0.165,0.104-0.572,0.28-1.227,0.504c0.03,0.023-0.043,0.072-0.207,0.148c0.586-0.083,0.872-0.055,0.443,0.124
							c0.344-0.058,0.295-0.014-0.104,0.097c-0.138,0.042-0.302,0.091-0.47,0.142c0.002-0.001,0.004-0.001,0.004-0.001
							c0.191-0.035,0.246-0.045,0.498-0.092c0.336-0.071,0.532-0.112,0.532-0.112c0.446-0.103,0.675-0.129,0.885-0.166
							c0.212-0.029,0.405-0.079,0.8-0.117c0.342-0.029,0.615-0.054,0.807-0.06c0.188-0.001,0.297-0.002,0.297-0.002
							c0.759,0.069,0.755,0.07,0.643,0.132c-0.043,0.008-0.092,0.017-0.143,0.027c0.598-0.017,0.64-0.002,0.801-0.006
							c0.166,0.008,0.283,0.014,0.283,0.014c0.025,0.029,0.025,0.029,0.128,0.037c0.032,0.01,0.024,0.021,0.024,0.021
							c-0.331,0.041-0.33,0.041-0.34,0.051c-0.08,0.009-0.186,0.021-0.186,0.021c-0.387,0.02-0.541,0.025-0.605,0.036
							c-0.835-0.013-0.838-0.013-0.838-0.013c-0.178,0.039-0.177,0.044-0.177,0.044c-0.197-0.01-0.197-0.01-0.197-0.01
							c0.113,0.018,0.113,0.018,0.113,0.018c-0.42,0.034-0.42,0.034-0.42,0.034c0.48-0.034,0.48-0.034,0.48-0.034
							c-0.495,0.059-0.742,0.088-0.915,0.108c-0.172,0.031-0.27,0.048-0.467,0.083c-0.203,0.036-0.393,0.067-0.534,0.099
							c-0.142,0.035-0.238,0.058-0.259,0.063c0.035,0.003,0.039,0.009,0.039,0.009c-0.52,0.113-0.779,0.168-1.031,0.243
							s-0.508,0.121-1,0.29c-0.092,0.023-0.167,0.041-0.236,0.058c-0.091,0.043-0.28,0.103-0.471,0.178
							c-0.171,0.065-0.34,0.131-0.509,0.195c-0.037,0.017-0.073,0.032-0.106,0.047c0,0.001,0.002,0.002,0.002,0.002
							c-0.172,0.07-0.285,0.13-0.417,0.194c-0.083,0.042-0.085,0.043-0.085,0.043s-0.004,0.001-0.005,0.002
							c-0.283,0.14-0.706,0.326-1.74,0.954c-0.28,0.157-0.544,0.299-0.782,0.452c0.08-0.045,0.156-0.087,0.23-0.13
							c0.146-0.082,0.031,0.024,0.11-0.021c1.964-1.123,4.284-2.016,6.666-2.426c0.425-0.083,0.828-0.132,0.896-0.111
							c0.06,0.016-0.244,0.07-0.678,0.157c-2.385,0.488-4.943,1.475-7.223,2.96c-2.286,1.471-4.273,3.422-5.719,5.465
							c-0.752,1.083-1.396,2.25-1.918,3.474c0.027-0.058,0.055-0.115,0.087-0.17c-0.14,0.315-0.269,0.635-0.403,0.952l-0.037,0.105
							c0.102-0.241,0.222-0.475,0.33-0.71c0.068-0.166,0.141-0.33,0.225-0.492c1.27-2.806,3.053-5.047,5.314-6.939
							c1.222-1.013,2.381-1.743,3.717-2.406c0.343-0.172,0.587-0.278,0.556-0.238c-0.03,0.038-0.341,0.214-0.675,0.382
							c-1.086,0.596-2.154,1.315-3.148,2.136c-0.994,0.821-1.913,1.742-2.723,2.716c-0.811,0.973-1.509,1.998-2.091,3.013
							c-0.583,1.015-1.038,2.024-1.4,2.956c-0.306,0.86-0.521,1.713-0.705,2.421l-0.007,0.041c0.045-0.187,0.108-0.356,0.162-0.541
							c-0.043,0.166-0.08,0.311-0.114,0.447c-0.03,0.136-0.059,0.262-0.087,0.386c-0.053,0.25-0.123,0.488-0.162,0.798
							c0.027-0.071,0.059-0.149,0.086-0.221c-0.258,1.663-0.318,3.434-0.133,5.149c0.188,1.713,0.573,3.374,1.107,4.848
							c0.045,0.118,0.086,0.229,0.127,0.338c0.549,1.232,1.2,2.436,2.113,3.745c-0.296-0.451-0.584-0.894-0.84-1.37
							c0.6,0.99,1.267,1.925,2.061,2.872c0.534,0.644,1.137,1.262,1.749,1.852c0.628,0.571,1.261,1.125,1.903,1.589
							c1.264,0.952,2.478,1.637,3.267,2.064c2.998,1.334,6.333,1.891,9.604,1.615c0.818-0.056,1.628-0.192,2.431-0.345
							c0.798-0.183,1.594-0.381,2.363-0.658c0.776-0.257,1.525-0.587,2.264-0.938c0.359-0.195,0.731-0.364,1.08-0.579l0.527-0.308
							l0.514-0.333c0.287-0.179,0.537-0.349,0.596-0.369c0.036-0.01-0.129,0.145-0.414,0.327c-3.871,2.667-8.82,3.863-13.59,3.227
							c3.973,0.569,8.156-0.08,11.825-1.979c0.234-0.118,0.468-0.242,0.692-0.379c0.227-0.136,0.463-0.257,0.682-0.407
							c0.221-0.142,0.439-0.282,0.659-0.423l0.639-0.445c2.124-1.562,3.894-3.495,5.243-5.697c1.346-2.201,2.274-4.681,2.669-7.336
							c0.318-2.27,0.271-4.448-0.126-6.55c-0.38-2.106-1.124-4.139-2.23-6.117c-0.795-1.381-1.725-2.641-2.771-3.764
							c-1.052-1.118-2.213-2.102-3.463-2.95c-1.25-0.849-2.6-1.536-4.015-2.083c-1.416-0.546-2.905-0.938-4.454-1.142
							c-0.205-0.027-0.406-0.054-0.596-0.079c-0.189-0.021-0.365-0.041-0.52-0.057c-0.307-0.036-0.522-0.074-0.571-0.098
							c-0.049-0.025,0.079-0.04,0.323-0.035c0.243,0.009,0.607,0.002,1.023,0.062c3.265,0.347,6.431,1.522,9.135,3.396
							c0.684,0.457,1.318,0.983,1.943,1.519c0.604,0.558,1.203,1.129,1.741,1.757c1.097,1.236,2.026,2.621,2.786,4.099
							c1.518,2.958,2.275,6.326,2.156,9.718c-0.042,1.696-0.34,3.389-0.822,5.035c-0.49,1.644-1.21,3.23-2.119,4.715
							c-0.794,1.276-1.713,2.444-2.738,3.497c0.018-0.01,0.034-0.018,0.039-0.014c0.016,0.016-0.061,0.136-0.215,0.316
							c1.187-1.184,2.25-2.512,3.133-3.962c2.375-4.072,3.323-8.978,2.465-13.921c-0.135-0.85-0.35-1.663-0.574-2.458
							c-0.252-0.786-0.517-1.557-0.85-2.291c-0.643-1.476-1.441-2.854-2.412-4.128c-2.514-3.188-5.979-5.59-9.875-6.808
							c-0.154-0.053-0.317-0.098-0.371-0.124c-0.053-0.024,0.033-0.008,0.193,0.034c2.702,0.772,5.304,2.178,7.521,4.088
							c-0.33-0.323-0.516-0.531-0.463-0.537c0.053-0.007,0.35,0.2,0.783,0.542l-0.76-0.656l-0.791-0.62
							c-0.336-0.241-0.592-0.443-0.573-0.454c0.021-0.012,0.299,0.167,0.622,0.396c2.202,1.636,4.063,3.716,5.459,6.071
							c0.842,1.41,1.531,2.912,2.018,4.482c0.482,1.57,0.782,3.198,0.887,4.847c-0.008-0.458,0-0.799,0.023-0.963v0
							c-0.068-0.51-0.119-1.019-0.223-1.519c-0.428-2.303-1.27-4.535-2.457-6.571c-0.594-1.019-1.272-1.992-2.031-2.901
							c-0.762-0.906-1.6-1.749-2.502-2.519c-3.604-3.098-8.321-4.908-13.123-4.979c-0.188-0.004-0.344-0.016-0.348-0.025
							c-0.002-0.01,0.143-0.014,0.312-0.009c2.9,0.048,5.779,0.708,8.396,1.92c-0.005-0.002-0.007-0.003-0.011-0.005
							c-0.104-0.053-0.118-0.072,0-0.025c0.104,0.041,0.31,0.133,0.409,0.193c0.115,0.067,0.1,0.07,0,0.026
							c2.415,1.181,4.589,2.829,6.374,4.813c1.788,1.982,3.188,4.299,4.101,6.784c-0.831-2.314-2.076-4.478-3.652-6.364
							c-1.574-1.89-3.492-3.486-5.615-4.718c-0.467-0.265-0.953-0.488-1.443-0.719c-0.136-0.059-0.31-0.144-0.361-0.177
							c-0.033-0.024,0.07,0.012,0.209,0.073c0.139,0.062,0.277,0.116,0.411,0.185c-0.417-0.206-0.792-0.377-1.054-0.515
							c-0.266-0.123-0.422-0.208-0.406-0.228c0.032-0.012,0.242,0.041,0.551,0.155c0.305,0.128,0.723,0.283,1.153,0.514
							c2.337,1.161,4.445,2.763,6.194,4.692l0.56,0.633c0.189,0.212,0.364,0.434,0.546,0.65c-2.449-3.232-5.844-5.733-9.643-7.102
							c-0.328-0.111-0.604-0.219-0.605-0.238c-0.004-0.019,0.268,0.057,0.598,0.168c1.693,0.569,3.302,1.386,4.809,2.366
							c1.487,1.005,2.877,2.178,4.077,3.533c2.425,2.687,4.138,6.035,4.917,9.602c0.562,2.33,0.76,4.774,0.505,7.237
							c0.041-0.309,0.087-0.621,0.105-0.936c0.019-0.25,0.038-0.499,0.056-0.747c0.006-0.248,0.012-0.495,0.018-0.741l0.008-0.369
							l-0.011-0.367c-0.007-0.244-0.015-0.487-0.021-0.728c-0.074-0.966-0.169-1.917-0.364-2.84
							c-0.353-1.854-0.982-3.601-1.781-5.244c-1.643-3.265-4.053-6.106-7.217-8.28c-0.158-0.11-0.285-0.208-0.303-0.227
							c-0.012-0.02,0.104,0.044,0.262,0.159c0.777,0.524,1.496,1.097,2.185,1.689c0.673,0.608,1.325,1.229,1.914,1.907
							c1.2,1.336,2.22,2.832,3.079,4.497c1.414,2.769,2.139,5.709,2.307,8.604c-0.121-2.966-0.871-5.84-2.146-8.435
							c-1.273-2.597-3.077-4.915-5.281-6.827c-0.195-0.164-0.388-0.335-0.504-0.449c-0.014-0.005-0.059-0.033-0.12-0.08
							c-0.585-0.438-1.229-0.903-1.923-1.327c-0.131-0.081-0.295-0.189-0.359-0.242C51.062,23.118,51.146,23.162,51.295,23.25z
							 M23.51,29.239c0.035-0.042,0.062-0.076,0.092-0.105c-0.096,0.116-0.191,0.247-0.301,0.388c0,0,0,0-0.057,0.064
							c-0.054,0.067-0.176,0.19-0.393,0.459c0,0,0.074-0.106,0.202-0.255C23.178,29.639,23.344,29.438,23.51,29.239z M29.776,23.37
							c-0.001,0-0.001,0-0.005,0.003c0.212-0.098,0.367-0.163,0.367-0.163C29.987,23.272,29.874,23.328,29.776,23.37z
							 M41.134,61.348c-2.896,0.183-5.798-0.289-8.438-1.368c0.649,0.252,1.312,0.46,1.984,0.641c1.043,0.29,2.108,0.5,3.188,0.627
							C38.949,61.364,40.041,61.395,41.134,61.348z M27.705,25.361c-0.631,0.438-1.113,0.798-1.562,1.147
							c-0.183,0.178-0.367,0.358-0.556,0.542c-0.182,0.191-0.365,0.384-0.551,0.578c-0.984,1.053-1.833,2.183-2.553,3.365
							c0.111-0.144-0.057,0.144-0.139,0.292c-0.086,0.152-0.169,0.304-0.253,0.454c0.72-1.287,1.585-2.495,2.585-3.613
							C25.577,27.114,26.664,26.115,27.705,25.361z M37.025,21.346c0.041-0.003,0.079-0.005,0.125-0.007c0,0,0,0-0.267,0.072
							C36.884,21.41,36.943,21.382,37.025,21.346z M37.447,21.229c-0.067,0.006-0.136,0.013-0.21,0.021
							C37.311,21.227,37.379,21.223,37.447,21.229z M35.525,21.507c0.113-0.017,0.183-0.026,0.271-0.043
							C35.526,21.506,35.525,21.507,35.525,21.507z M33.882,20.808c0,0-0.179,0.1-0.355,0.199c-0.175,0.108-0.349,0.215-0.349,0.215
							s0.191-0.111,0.383-0.222c0.197-0.103,0.393-0.205,0.393-0.205L33.882,20.808z"/>
					</g>
				</g>
				<g>
					<path fill="#FCAB4C" d="M33.956,69.596c-0.171-0.045-0.34-0.09-0.506-0.136c0.164,0.032,0.367,0.076,0.599,0.128
						c0.232,0.044,0.495,0.093,0.774,0.146c-0.677-0.125-1.366-0.314-2.076-0.49c-0.701-0.209-1.425-0.409-2.14-0.672
						c-1.433-0.506-2.877-1.11-4.232-1.834c-1.358-0.719-2.639-1.525-3.794-2.352c-1.148-0.835-2.162-1.694-3.024-2.485
						c-0.59-0.604-1.147-1.173-1.55-1.627c-0.417-0.442-0.693-0.753-0.766-0.799c-0.144-0.089,0.567,0.949,1.763,2.181
						c0.25,0.283,0.57,0.586,0.76,0.783c0.846,0.888,1.869,1.796,3.041,2.687c0.298,0.217,0.59,0.454,0.909,0.664
						c0.317,0.211,0.64,0.428,0.966,0.647c0.339,0.202,0.682,0.408,1.028,0.616c0.348,0.21,0.717,0.39,1.082,0.589
						c-0.28-0.154-0.567-0.311-0.854-0.468c-0.279-0.17-0.557-0.341-0.83-0.508c0.412,0.244,0.815,0.498,1.254,0.719
						c0.434,0.229,0.879,0.468,1.369,0.681c-0.098-0.056-0.222-0.126-0.322-0.183c1.471,0.75,3.312,1.455,5.093,1.896
						c1.776,0.454,3.478,0.645,4.612,0.702c1.145,0.03,1.512-0.016,1.191-0.104c-0.32-0.095-1.333-0.195-2.934-0.479
						c0,0-0.355-0.073-0.709-0.146c-0.176-0.037-0.353-0.073-0.484-0.101C34.043,69.623,33.956,69.596,33.956,69.596z"/>
					<path fill="#FCAB4C" d="M28.346,67.402c1.738,0.817,3.49,1.435,5.291,1.885l0.352,0.102l-0.1-0.12l-0.037-0.002
						c-1.71-0.276-4.49-1.081-6.849-2.287c0,0-0.212-0.105-0.423-0.21c-0.105-0.052-0.211-0.104-0.291-0.144
						c-0.08-0.038-0.131-0.069-0.131-0.069c-0.397-0.214-0.667-0.348-0.76-0.378c-0.107-0.035,0.014,0.059,0.294,0.241
						c0.141,0.089,0.319,0.207,0.535,0.328c0.22,0.117,0.472,0.25,0.743,0.396c0,0,0.08,0.041,0.199,0.103
						c0.117,0.063,0.276,0.144,0.439,0.216c0.325,0.149,0.65,0.299,0.65,0.299c1.574,0.736,3.706,1.476,5.717,1.875
						c2.008,0.42,3.873,0.496,4.838,0.452c0.438-0.025,0.058-0.082-0.033-0.128c0.066-0.035-0.226-0.052-0.744-0.121
						c-0.262-0.028-0.578-0.061-0.935-0.098c-0.359-0.042-0.757-0.105-1.183-0.157c-1.703-0.243-3.145-0.578-3.275-0.544
						c-0.28-0.084-0.569-0.171-0.847-0.254c0.222,0.055,0.446,0.111,0.671,0.167c-0.239-0.045-0.744-0.153-1.318-0.328
						c-0.574-0.178-1.229-0.384-1.775-0.599c0,0-0.103-0.04-0.256-0.099c-0.152-0.061-0.361-0.133-0.56-0.226
						c-0.403-0.178-0.805-0.356-0.805-0.356l0.847,0.544c0,0,0.053,0.025,0.133,0.054c0.082,0.03,0.189,0.07,0.297,0.109
						c0.217,0.081,0.432,0.161,0.432,0.161c-0.062-0.031-0.163-0.082-0.174-0.086c1.641,0.604,3.229,1.046,5.104,1.391
						c0,0,0.593,0.092,1.186,0.183c0.595,0.062,1.191,0.125,1.191,0.125c0.323,0.031,0.473,0.01,0.45-0.004
						c-0.021-0.02-0.213-0.044-0.562-0.106l-1.045-0.166c0.158,0.027,0.314,0.053,0.471,0.08c-2.417-0.335-4.906-1.062-7.115-2.012
						c-0.35-0.149-0.77-0.344-0.96-0.411C27.848,67.151,27.988,67.234,28.346,67.402z"/>
					<g>
						<path fill="#FCAB4C" d="M36.613,69.642c0.391,0.07,0.77,0.098,1.33,0.141c0.136,0.004,0.205,0.006,0.24,0.007
							c-0.207-0.023-0.487-0.054-0.767-0.084C36.866,69.653,36.584,69.612,36.613,69.642z"/>
						<path fill="#FCAB4C" d="M38.184,69.79c0.191,0.022,0.32,0.031,0.32,0.031c-0.074-0.006-0.146-0.017-0.214-0.027
							c-0.062-0.003-0.063-0.003-0.063-0.003S38.225,69.791,38.184,69.79z"/>
						<path fill="#FCAB4C" d="M57.387,18.546c3.006,2.329,5.551,5.257,7.436,8.569c1.889,3.308,3.105,7.002,3.552,10.786
							c0.03,0.253,0.065,0.466,0.075,0.478c0.01,0.011-0.007-0.186-0.037-0.42c-0.437-3.792-1.646-7.483-3.523-10.793
							c-1.873-3.312-4.404-6.245-7.406-8.586c-0.201-0.158-0.369-0.286-0.404-0.297C57.064,18.281,57.199,18.398,57.387,18.546z"/>
						<path fill="#FCAB4C" d="M53.369,65.726c0.148-0.094,0.139-0.098-0.022-0.013c-0.138,0.073-0.383,0.204-0.535,0.288
							c-0.128,0.072-0.12,0.08,0.023,0.014C52.999,65.938,53.246,65.809,53.369,65.726z"/>
						<path fill="#FCAB4C" d="M54.352,64.313c0.209-0.139,0.417-0.276,0.62-0.411c0.202-0.136,0.393-0.285,0.583-0.424
							c0.189-0.14,0.375-0.277,0.555-0.411c0.174-0.144,0.342-0.284,0.507-0.42c0.122-0.101,0.264-0.209,0.372-0.29
							c-0.057,0.023,0.09-0.1,0.357-0.345c2.684-2.348,5.005-5.31,6.641-8.668c0.821-1.678,1.473-3.45,1.93-5.273
							c0.453-1.825,0.712-3.699,0.773-5.571c-0.011-0.05-0.02-0.15-0.026-0.317c-0.015-0.519-0.026-1.558-0.097-2.632l-0.051-0.81
							c-0.303-3.268-1.214-6.469-2.663-9.399c-0.311-0.592-0.7-1.264-1.139-1.983c-0.757-1.193-1.621-2.317-2.559-3.383
							c-0.939-1.064-1.964-2.068-3.081-2.979c0.131,0.127,0.206,0.207,0.195,0.217c-0.031-0.007-0.176-0.115-0.387-0.285
							c-0.217-0.167-0.5-0.385-0.808-0.623c-0.304-0.249-0.629-0.464-0.946-0.693c0.926,0.638,1.781,1.375,2.615,2.12
							c0.117,0.112,0.224,0.217,0.322,0.312c0.904,0.836,1.738,1.763,2.536,2.743c3.472,4.3,5.481,9.526,5.866,14.793
							c0.406,5.273-0.766,10.566-3.313,15.107c-0.08,0.151-0.214,0.382-0.296,0.51c-0.058,0.084-0.058,0.062,0.034-0.104
							c0.812-1.425,1.459-2.875,1.966-4.353s0.879-2.981,1.125-4.529c0.488-3.091,0.482-6.378-0.258-9.942
							c-0.441-2.122-1.17-4.167-2.105-6.105c-0.943-1.935-2.141-3.738-3.516-5.394c-1.395-1.64-2.981-3.125-4.736-4.397
							c-0.447-0.306-0.883-0.63-1.351-0.909c-0.229-0.143-0.458-0.292-0.692-0.43l-0.711-0.401
							c-0.235-0.138-0.479-0.262-0.724-0.381l-0.731-0.366l-0.751-0.332l-0.376-0.166l-0.385-0.149
							c-0.266-0.104-0.531-0.21-0.797-0.315c-0.271-0.092-0.54-0.183-0.811-0.274l-0.403-0.137l-0.409-0.116
							c-0.271-0.077-0.543-0.154-0.814-0.231c-1.098-0.26-2.195-0.497-3.307-0.613c-2.215-0.276-4.449-0.243-6.645,0.061
							c-4.391,0.598-8.639,2.36-12.32,5.219c-2.483,1.932-4.584,4.281-6.191,6.898c-1.611,2.614-2.74,5.485-3.35,8.455
							c-0.588,2.973-0.66,6.044-0.213,9.042c0.465,2.995,1.453,5.914,2.94,8.597c1.13,2.001,2.447,3.778,3.577,5.058
							c1.117,1.294,2.01,2.117,2.174,2.389c0.096,0.158-0.071,0.085-0.453-0.18c-0.19-0.131-0.436-0.309-0.712-0.55
							c-0.275-0.239-0.612-0.508-0.952-0.853c0.26,0.285,0.539,0.543,0.814,0.808c0,0,0.082,0.079,0.203,0.198
							c0.119,0.123,0.287,0.275,0.459,0.424c0.34,0.303,0.68,0.604,0.68,0.604c1.311,1.118,2.536,1.939,3.3,2.472
							c0,0,0.269,0.176,0.536,0.354c0.266,0.182,0.544,0.341,0.544,0.341c0.365,0.222,0.78,0.498,1.247,0.734
							c0.231,0.124,0.469,0.25,0.709,0.378c0.246,0.116,0.494,0.233,0.74,0.35c0.984,0.467,1.975,0.835,2.639,1.098l-0.322-0.032
							l0.318,0.109c1.062,0.323,1.79,0.527,2.035,0.625l-0.119,0.05c-0.25,0.048-0.811-0.008-1.712-0.144
							c0.022,0.038-0.09,0.039-0.324,0c0.729,0.274,1.081,0.411,0.456,0.359c0.453,0.126,0.371,0.139-0.182,0.029
							c-0.189-0.041-0.414-0.105-0.645-0.168c0.004,0.001,0.006,0.001,0.006,0.001c0.245,0.087,0.315,0.12,0.65,0.226
							c0.457,0.113,0.721,0.179,0.721,0.179c0.606,0.155,0.918,0.199,1.203,0.256c0.288,0.047,0.551,0.121,1.09,0.188
							c0.459,0.074,0.834,0.133,1.094,0.175c0.258,0.033,0.402,0.051,0.402,0.051c1.023,0.206,1.027,0.204,0.863,0.248
							c-0.062,0-0.13,0-0.202,0c0.832,0.067,0.892,0.05,1.116,0.068c0.234,0.018,0.397,0.031,0.397,0.031
							c0.035,0.03,0.035,0.03,0.179,0.044c0.046,0.013,0.035,0.023,0.035,0.023c-0.468,0.021-0.469,0.021-0.48,0.03
							c-0.113,0.004-0.264,0.009-0.264,0.009c-0.549-0.004-0.769-0.004-0.86-0.014c-1.167-0.165-1.172-0.165-1.172-0.165
							c-0.128,0.004-0.192,0.001-0.224,0c-0.033-0.001-0.033-0.001-0.033-0.001c-0.268-0.069-0.268-0.069-0.268-0.069
							c0.15,0.052,0.15,0.052,0.15,0.052c-0.588-0.095-0.588-0.095-0.588-0.095c0.67,0.114,0.67,0.114,0.67,0.114
							c-0.697-0.096-1.045-0.143-1.29-0.176c-0.241-0.044-0.381-0.069-0.658-0.118c-0.288-0.053-0.556-0.102-0.758-0.139
							c-0.201-0.044-0.338-0.074-0.367-0.081c0.046,0.021,0.047,0.028,0.047,0.028c-0.733-0.174-1.099-0.26-1.454-0.373
							c-0.354-0.113-0.714-0.189-1.403-0.442c-0.125-0.051-0.226-0.092-0.319-0.13c-0.135-0.041-0.406-0.113-0.674-0.226
							c-0.238-0.097-0.476-0.192-0.713-0.289c-0.055-0.019-0.106-0.038-0.155-0.056c-0.001,0.001,0.001,0.003,0.001,0.003
							c-0.248-0.087-0.412-0.163-0.603-0.243c-0.12-0.05-0.124-0.051-0.124-0.051c-0.001-0.001-0.006-0.003-0.006-0.004
							c-0.207-0.089-0.461-0.191-0.856-0.368c-0.194-0.095-0.425-0.206-0.703-0.341c-0.14-0.068-0.291-0.141-0.456-0.221
							c-0.161-0.087-0.335-0.182-0.524-0.285c-0.394-0.229-0.761-0.444-1.091-0.673c0.106,0.075,0.208,0.145,0.308,0.214
							c0.196,0.138-0.003,0.045,0.106,0.115c2.726,1.728,6.045,3.074,9.462,3.739c0.308,0.053,0.604,0.11,0.837,0.158
							c0.23,0.046,0.398,0.07,0.442,0.09c0.077,0.033-0.369,0.005-1.001-0.114c-1.748-0.269-3.572-0.735-5.375-1.417
							c-1.805-0.681-3.586-1.578-5.254-2.66c-3.347-2.156-6.193-5.081-8.169-8.13c-1.062-1.591-1.968-3.298-2.697-5.082
							c0.03,0.088,0.058,0.175,0.093,0.26c-0.186-0.464-0.355-0.933-0.534-1.397c-0.017-0.051-0.034-0.103-0.051-0.152
							c0.109,0.362,0.241,0.716,0.36,1.073c0.09,0.246,0.184,0.489,0.292,0.731c1.798,4.098,4.234,7.485,7.483,10.371
							c1.754,1.542,3.4,2.722,5.344,3.791c0.508,0.265,0.852,0.46,0.782,0.448c-0.067-0.011-0.55-0.243-1.046-0.501
							c-1.637-0.873-3.244-1.941-4.732-3.172c-1.487-1.231-2.854-2.622-4.037-4.098c-1.187-1.475-2.191-3.034-2.997-4.577
							c-0.808-1.544-1.405-3.077-1.839-4.488c-0.229-0.635-0.396-1.275-0.56-1.88c-0.151-0.609-0.269-1.191-0.366-1.72
							c-0.003-0.019-0.007-0.039-0.01-0.059c0.031,0.282,0.09,0.539,0.135,0.819c-0.053-0.247-0.102-0.463-0.139-0.667
							c-0.031-0.204-0.059-0.392-0.086-0.578c-0.049-0.372-0.119-0.729-0.161-1.186c-0.005,0.109-0.011,0.235-0.015,0.344
							c-0.34-2.459-0.412-5.057-0.113-7.576c0.301-2.518,0.914-4.953,1.791-7.072c0.068-0.171,0.133-0.331,0.199-0.49
							c0.709-1.838,1.58-3.657,2.911-5.592c-0.237,0.32-0.438,0.657-0.656,0.983c-0.221,0.325-0.417,0.666-0.618,1.009
							c0.828-1.488,1.781-2.897,2.961-4.292c0.793-0.949,1.693-1.852,2.617-2.699c0.945-0.823,1.905-1.604,2.877-2.244
							c1.918-1.313,3.767-2.183,4.983-2.63c2.164-0.985,4.462-1.667,6.805-2.075c2.343-0.417,4.736-0.512,7.107-0.334
							c1.187,0.076,2.364,0.265,3.533,0.481c1.161,0.258,2.319,0.54,3.442,0.934c1.131,0.368,2.225,0.839,3.303,1.341
							c0.526,0.275,1.068,0.522,1.578,0.828l0.775,0.442l0.75,0.477c0.421,0.257,0.77,0.528,0.83,0.593
							c0.028,0.047-0.235-0.141-0.649-0.403c-5.688-3.736-12.829-5.362-19.651-4.386c1.426-0.198,2.869-0.255,4.311-0.229
							c1.442,0.016,2.885,0.178,4.312,0.418c1.431,0.235,2.842,0.612,4.225,1.073c0.694,0.223,1.371,0.501,2.052,0.773
							c0.667,0.301,1.341,0.595,1.988,0.944l0.502,0.255l0.491,0.278c0.323,0.192,0.661,0.363,0.978,0.573
							c0.312,0.203,0.626,0.404,0.938,0.605c0.301,0.217,0.6,0.433,0.899,0.65c3.028,2.228,5.542,4.983,7.471,8.119
							c1.926,3.135,3.271,6.663,3.886,10.454c0.502,3.241,0.481,6.355-0.035,9.389c-0.252,1.517-0.623,3.018-1.138,4.495
							c-0.509,1.479-1.141,2.942-1.921,4.386c-1.105,2.02-2.414,3.872-3.9,5.532c-1.495,1.652-3.158,3.117-4.961,4.381
							c-1.801,1.266-3.76,2.3-5.826,3.12c-2.064,0.819-4.25,1.405-6.52,1.705c-0.301,0.037-0.598,0.075-0.875,0.109
							c-0.277,0.028-0.537,0.036-0.763,0.049c-0.45,0.021-0.769,0.027-0.84,0.008c-0.075-0.019,0.108-0.049,0.46-0.094
							c0.176-0.019,0.394-0.042,0.643-0.069c0.125-0.012,0.257-0.025,0.396-0.038c0.139-0.019,0.283-0.039,0.434-0.059
							c4.711-0.584,9.238-2.368,13.058-5.119c0.966-0.672,1.862-1.438,2.74-2.22c0.852-0.811,1.688-1.641,2.44-2.549
							c1.533-1.786,2.826-3.777,3.873-5.893c1.061-2.112,1.814-4.375,2.318-6.694c0.502-2.323,0.676-4.718,0.59-7.107
							c-0.08-2.395-0.512-4.782-1.198-7.104c-0.076-0.293-0.187-0.576-0.28-0.864c-0.102-0.287-0.188-0.577-0.301-0.859
							c-0.227-0.564-0.436-1.136-0.699-1.686c-0.488-1.119-1.082-2.191-1.711-3.244c-1.115-1.803-2.404-3.455-3.847-4.945
							c0.015,0.024,0.026,0.045,0.024,0.05c-0.02,0.017-0.168-0.113-0.414-0.334c1.652,1.667,3.124,3.543,4.33,5.587
							c1.726,2.813,2.936,5.949,3.576,9.25c0.646,3.302,0.682,6.782,0.051,10.253c-0.201,1.194-0.52,2.336-0.855,3.448
							c-0.373,1.099-0.766,2.173-1.256,3.191c-0.463,1.031-1.016,2.004-1.588,2.958c-0.598,0.939-1.224,1.858-1.928,2.725
							c-3.445,4.477-8.236,7.914-13.693,9.679c-0.215,0.081-0.447,0.133-0.527,0.15c-0.082,0.014,0.034-0.028,0.256-0.094
							c3.746-1.208,7.307-3.252,10.316-5.961c-0.5,0.397-0.81,0.618-0.795,0.554c0.012-0.064,0.36-0.415,0.91-0.925l-1.035,0.891
							c-0.359,0.28-0.715,0.565-1.078,0.84c-0.46,0.325-0.83,0.569-0.828,0.543c-0.002-0.025,0.354-0.297,0.789-0.607
							c2.98-2.206,5.504-5.012,7.395-8.193c1.117-1.919,2.025-3.959,2.658-6.084c0.632-2.125,1.014-4.323,1.137-6.541
							c-0.074,0.613-0.141,1.062-0.195,1.272c0,0-0.001,0-0.001,0c-0.089,0.68-0.157,1.361-0.29,2.029
							c-0.262,1.541-0.645,3.069-1.174,4.553c-0.527,1.484-1.182,2.927-1.958,4.309c-0.775,1.382-1.667,2.704-2.673,3.94
							c-1.011,1.233-2.126,2.384-3.336,3.435c-2.417,2.1-5.205,3.806-8.225,4.954c-3.015,1.15-6.242,1.8-9.488,1.828
							c-0.253,0.007-0.463,0.004-0.469-0.005c-0.004-0.01,0.192-0.022,0.42-0.027c3.914-0.047,7.805-0.942,11.327-2.594
							c-0.007,0.002-0.009,0.003-0.016,0.006c-0.145,0.059-0.175,0.062-0.022-0.016c0.137-0.065,0.41-0.195,0.551-0.261
							c0.163-0.077,0.153-0.06,0.025,0.012c3.248-1.607,6.156-3.857,8.523-6.552c2.369-2.693,4.195-5.833,5.355-9.173
							c-1.102,3.096-2.76,5.993-4.867,8.514c-2.102,2.528-4.672,4.657-7.52,6.283c-0.307,0.185-0.613,0.37-0.933,0.534
							c-0.319,0.165-0.632,0.345-0.96,0.502c-0.18,0.083-0.42,0.185-0.494,0.211c-0.054,0.015,0.074-0.053,0.258-0.139
							c0.184-0.088,0.365-0.167,0.542-0.266c-0.56,0.271-1.069,0.479-1.433,0.626c-0.371,0.129-0.596,0.195-0.596,0.168
							c0.021-0.038,0.28-0.155,0.674-0.338c0.196-0.095,0.426-0.206,0.678-0.327c0.256-0.117,0.533-0.248,0.816-0.399
							c3.065-1.546,5.826-3.66,8.118-6.198l0.722-0.843c0.233-0.291,0.449-0.592,0.674-0.888c-3.244,4.208-7.719,7.43-12.685,9.157
							c-0.428,0.145-0.796,0.256-0.811,0.242c-0.016-0.013,0.325-0.144,0.753-0.289c2.178-0.773,4.243-1.863,6.168-3.156
							c0.943-0.672,1.88-1.363,2.737-2.147c0.446-0.374,0.847-0.796,1.271-1.194l0.6-0.632c0.201-0.21,0.4-0.422,0.586-0.647
							l0.567-0.663l0.538-0.688c0.37-0.451,0.686-0.942,1.025-1.414c0.635-0.977,1.249-1.97,1.758-3.021
							c1.059-2.079,1.811-4.31,2.303-6.593c0.555-3.016,0.629-6.125,0.143-9.198c0.047,0.388,0.104,0.781,0.127,1.177
							c0.023,0.314,0.048,0.626,0.072,0.938c0.009,0.312,0.016,0.622,0.025,0.932l0.012,0.464l-0.008,0.461
							c-0.008,0.306-0.014,0.611-0.021,0.916c-0.079,1.214-0.177,2.413-0.403,3.579c-0.397,2.342-1.131,4.567-2.084,6.678
							c-1.957,4.192-4.928,7.934-8.966,10.766c-0.198,0.146-0.37,0.258-0.404,0.265c-0.026,0.009,0.11-0.089,0.312-0.237
							c0.244-0.175,0.485-0.35,0.727-0.523c0.24-0.175,0.464-0.367,0.697-0.548c0.467-0.357,0.892-0.759,1.329-1.14
							c0.841-0.796,1.651-1.608,2.376-2.493c1.48-1.742,2.713-3.678,3.746-5.808c1.701-3.54,2.521-7.258,2.604-10.881
							c-0.127,3.707-1,7.309-2.54,10.601c-1.537,3.292-3.75,6.266-6.511,8.722c-0.24,0.214-0.49,0.424-0.65,0.552
							c-0.011,0.015-0.06,0.058-0.137,0.121c-0.706,0.595-1.501,1.22-2.363,1.785c-0.164,0.11-0.375,0.242-0.469,0.29
							C54.072,64.508,54.169,64.437,54.352,64.313z M17.263,58.093c0.04,0.063,0.072,0.115,0.106,0.161
							c-0.122-0.169-0.243-0.356-0.383-0.56c0,0,0,0-0.061-0.102c-0.059-0.103-0.192-0.298-0.42-0.713c0,0,0.084,0.159,0.23,0.383
							C16.88,57.489,17.07,57.79,17.263,58.093z M26.217,65.664c-0.002-0.001-0.002-0.001-0.006-0.003
							c0.131,0.088,0.242,0.164,0.322,0.218c0.079,0.055,0.129,0.082,0.129,0.082C26.476,65.845,26.336,65.743,26.217,65.664z
							 M41.656,12.899c-2.058-0.127-4.119-0.042-6.144,0.262c-2.024,0.306-4.011,0.827-5.923,1.545
							c0.928-0.37,1.875-0.678,2.836-0.944c1.5-0.392,3.031-0.664,4.575-0.816C38.547,12.81,40.104,12.797,41.656,12.899z
							 M22.67,63.95c-0.838-0.689-1.442-1.276-1.994-1.847c-0.259-0.243-0.522-0.491-0.79-0.742
							c-0.254-0.266-0.511-0.536-0.771-0.806c-1.368-1.48-2.535-3.072-3.512-4.739c0.103,0.23-0.125-0.172-0.246-0.376
							c-0.123-0.211-0.245-0.419-0.366-0.628c0.97,1.82,2.144,3.541,3.511,5.146C19.732,61.407,21.242,62.831,22.67,63.95z
							 M35.873,69.397c0.058,0.011,0.109,0.02,0.174,0.031c0,0,0,0-0.389-0.012C35.658,69.417,35.752,69.408,35.873,69.397z
							 M36.484,69.412c-0.095-0.013-0.189-0.027-0.292-0.042C36.299,69.37,36.393,69.387,36.484,69.412z M33.826,68.915
							c0.156,0.045,0.25,0.071,0.369,0.106C33.829,68.915,33.826,68.915,33.826,68.915z M32.275,67.396c0,0-0.258-0.026-0.514-0.053
							c-0.256-0.038-0.512-0.075-0.512-0.075s0.276,0.047,0.554,0.094c0.278,0.033,0.558,0.066,0.558,0.066L32.275,67.396z"/>
					</g>
				</g>
			</g>
		</g>
	</g>
	<g>
		<g>
			
				<rect x="49.228" y="69.137" transform="matrix(0.7071 0.7071 -0.7071 0.7071 70.3129 -24.8579)" fill="#FCA035" width="31.869" height="6.62"/>
			<g>
				<path fill="#FCAB4C" d="M71.393,85.159c-0.048-0.057-0.097-0.115-0.143-0.171c0.107,0.092,0.257,0.242,0.424,0.416
					c-1.544-1.758-3.783-3.869-5.292-5.163c-0.501-0.51-0.983-0.927-1.074-0.932c-0.091-0.003,0.243,0.407,0.749,0.922
					c0.105,0.117,0.234,0.252,0.309,0.34c0.66,0.795,1.504,1.729,2.449,2.746c-0.178-0.202-0.361-0.412-0.537-0.613
					c0.273,0.292,0.541,0.583,0.856,0.9c-0.026-0.042-0.058-0.091-0.085-0.133c0.918,1.033,2.274,2.348,3.031,2.939
					c0.76,0.595,0.636,0.242-0.283-0.792L71.393,85.159z"/>
				<path fill="#FCAB4C" d="M69.826,83.086c0.551,0.613,1.082,1.204,1.615,1.796l0.096,0.126l0.029-0.104l-0.016-0.006
					c-0.581-0.47-1.471-1.314-2.285-2.097l-0.293-0.275c-0.145-0.127-0.25-0.205-0.292-0.22c-0.099-0.034,0.12,0.245,0.485,0.622
					l0.423,0.435c1.005,1.083,2.647,2.728,3.344,3.197c0.157,0.105,0.075-0.043,0.077-0.101c0.084-0.005-0.27-0.436-0.787-0.961
					c-0.521-0.525-1.003-0.941-1.084-0.933c-0.085-0.091-0.173-0.186-0.256-0.276c0.074,0.064,0.148,0.128,0.225,0.193
					c-0.187-0.109-0.67-0.576-1.046-0.909l-0.542-0.521l0.197,0.404l0.289,0.262c-0.017-0.025-0.05-0.072-0.047-0.069
					c0.555,0.498,1.077,0.964,1.671,1.521l0.763,0.687c0.216,0.176,0.227,0.128,0.029-0.104l-0.299-0.344l0.133,0.159
					c-0.723-0.763-1.479-1.562-2.193-2.318c-0.111-0.12-0.256-0.257-0.328-0.308C69.673,82.9,69.711,82.962,69.826,83.086z"/>
				<g>
					<path fill="#FCAB4C" d="M72.455,85.688c0.111,0.129,0.219,0.251,0.391,0.421c0.047,0.036,0.07,0.056,0.082,0.065
						c-0.058-0.068-0.137-0.161-0.217-0.253C72.557,85.74,72.459,85.664,72.455,85.688z"/>
					<path fill="#FCAB4C" d="M72.928,86.174c0.055,0.063,0.09,0.104,0.09,0.104c-0.019-0.027-0.036-0.051-0.055-0.075
						c-0.019-0.019-0.021-0.019-0.021-0.019S72.942,86.185,72.928,86.174z"/>
					<path fill="#FCAB4C" d="M62.733,63.676c2.278,2.31,4.562,4.626,6.849,6.943c0.074,0.078,0.146,0.138,0.154,0.135
						c0.011-0.002-0.043-0.068-0.115-0.14c-2.285-2.317-4.559-4.624-6.834-6.933c-0.078-0.077-0.146-0.136-0.162-0.141
						C62.614,63.544,62.662,63.603,62.733,63.676z"/>
					<path fill="#FCAB4C" d="M78.803,81.726c0.055-0.064,0.039-0.063-0.033,0c-0.062,0.054-0.162,0.153-0.216,0.215
						c-0.045,0.055-0.03,0.056,0.032,0.002C78.658,81.88,78.758,81.779,78.803,81.726z"/>
					<path fill="#FCAB4C" d="M78.005,81.232c-0.259-0.242-0.503-0.464-0.722-0.646c-0.039-0.035-0.079-0.077-0.107-0.11
						c0.001,0.012-0.012,0.009-0.035-0.006c-0.03-0.021-0.079-0.064-0.139-0.119c-2.371-2.198-4.861-4.621-7.328-6.995
						c-0.023-0.008-0.064-0.032-0.125-0.078c-0.195-0.142-0.544-0.464-0.889-0.817l-0.256-0.27
						c-1.049-1.077-2.094-2.151-3.137-3.223c-0.228-0.204-0.487-0.447-0.762-0.717c-0.945-0.888-1.891-1.777-2.854-2.682
						c0.052,0.066,0.079,0.111,0.069,0.119c-0.041,0.004-0.274-0.196-0.527-0.451l-0.385-0.381c0.361,0.372,0.723,0.745,1.084,1.117
						c0.05,0.053,0.098,0.103,0.141,0.149c0.403,0.401,0.811,0.807,1.224,1.219c3.624,3.586,7.097,6.89,10.558,10.155
						c0.059,0.052,0.144,0.139,0.188,0.193c0.026,0.038,0.013,0.039-0.052-0.019c-2.23-2.008-4.211-3.694-6.682-6.018
						c-2.939-2.765-5.829-5.508-8.81-8.375c-0.567-0.564-1.129-1.121-1.685-1.674l-0.389-0.383l-0.052-0.047l-0.099-0.083
						l-0.12,0.146c-0.347,0.357-0.695,0.715-1.046,1.076c-0.357,0.37-0.719,0.741-1.081,1.115c-0.024,0.036-0.044,0.067-0.061,0.093
						c0.027,0.017,0.054,0.036,0.081,0.054l0.014,0.008l0.003,0.002c0.003,0.001-0.003-0.004,0.02,0.018l0.099,0.097l0.398,0.389
						c0.265,0.258,0.527,0.516,0.792,0.773c0.524,0.515,1.046,1.027,1.565,1.537c1.036,1.022,2.064,2.037,3.088,3.048
						c2.041,2.032,4.071,4.051,6.137,6.105c1.562,1.526,2.883,3.033,2.951,3.364c0.038,0.197-0.387-0.077-1.074-0.662
						c0.127,0.127,0.251,0.253,0.375,0.379l0.581,0.612c0.55,0.581,0.999,1.096,1.259,1.443l0.363,0.473
						c0.45,0.661,1.263,1.649,1.607,2.214l-0.144-0.062l0.095,0.12c0.325,0.386,0.525,0.665,0.565,0.789L72.62,84.24
						c-0.132-0.018-0.363-0.141-0.698-0.375c-0.012,0.031-0.066,0.018-0.16-0.037c0.191,0.295,0.252,0.463,0.002,0.33
						c0.131,0.16,0.085,0.159-0.103-0.004c-0.063-0.055-0.139-0.125-0.213-0.198c0.001,0.002,0.002,0.002,0.002,0.002
						c0.069,0.094,0.09,0.122,0.18,0.244c0.141,0.15,0.222,0.237,0.222,0.237c0.378,0.396,0.378,0.396,0.705,0.739
						c0.271,0.306,0.426,0.509,0.426,0.509c0.229,0.409,0.229,0.409,0.141,0.398c-0.023-0.016-0.048-0.034-0.072-0.051
						c0.242,0.269,0.258,0.289,0.324,0.36c0.065,0.08,0.107,0.137,0.107,0.137c-0.011,0.032-0.011,0.032,0.025,0.083
						c0.007,0.021-0.004,0.026-0.004,0.026c-0.166-0.12-0.166-0.12-0.178-0.117c-0.041-0.032-0.091-0.068-0.091-0.068
						c-0.175-0.161-0.243-0.224-0.272-0.251c-0.304-0.413-0.307-0.413-0.307-0.413c-0.096-0.06-0.096-0.06-0.096-0.06
						c-0.059-0.108-0.059-0.108-0.059-0.108c0.025,0.07,0.025,0.07,0.025,0.07c-0.168-0.196-0.168-0.196-0.168-0.196
						c0.187,0.228,0.187,0.228,0.187,0.228c-0.419-0.437-0.419-0.437-0.593-0.608c-0.176-0.182-0.333-0.329-0.352-0.346
						c0.006,0.022,0.003,0.027,0.003,0.027c-0.449-0.467-0.449-0.467-0.888-0.923c-0.035-0.046-0.062-0.084-0.09-0.12
						c-0.049-0.037-0.138-0.118-0.225-0.208l-0.231-0.24c-0.018-0.017-0.035-0.032-0.052-0.047c-0.002,0-0.002,0.002-0.002,0.002
						c-0.084-0.076-0.143-0.128-0.209-0.188c-0.041-0.038-0.044-0.038-0.044-0.038l-0.001-0.003
						c-0.145-0.129-0.353-0.315-0.903-0.812c-0.134-0.141-0.259-0.273-0.378-0.4c0.035,0.043,0.069,0.084,0.103,0.125
						c0.066,0.079-0.021,0.033,0.018,0.074c0.937,1.022,1.987,2.105,3.017,3.181c0.191,0.186,0.355,0.375,0.367,0.419
						c0.008,0.041-0.143-0.079-0.337-0.27c-2.238-2.025-4.843-4.658-6.948-6.933c-0.565-0.586-1.136-1.175-1.709-1.766l0.073,0.093
						l-0.436-0.466l-0.049-0.049c0.103,0.126,0.204,0.253,0.306,0.377c0.075,0.083,0.15,0.165,0.227,0.248
						c1.332,1.363,2.5,2.643,3.768,3.981c0.682,0.72,1.247,1.356,1.883,2.044c0.168,0.172,0.274,0.303,0.237,0.298
						c-0.032-0.005-0.2-0.154-0.366-0.323c-2.234-2.183-4.732-4.727-6.377-6.619c-0.402-0.404-0.781-0.803-1.08-1.148l-0.018-0.019
						c0.074,0.095,0.144,0.184,0.217,0.279c-0.292-0.31-0.43-0.495-0.693-0.78c0.02,0.046,0.041,0.096,0.061,0.143
						c-1.463-1.514-3.082-3.11-4.4-4.547c-0.053-0.056-0.104-0.109-0.154-0.162c-0.622-0.564-1.25-1.136-1.957-1.836
						c0.234,0.243,0.461,0.479,0.696,0.722c-0.529-0.493-1.047-0.987-1.593-1.536c-0.487-0.49-0.986-1.006-1.461-1.509
						c-0.389-0.405-0.77-0.803-1.139-1.187c-0.371-0.396-0.73-0.777-1.068-1.136c0.786-0.734,1.445-1.328,1.92-1.73l4.549-4.583
						l3.322,3.294c0.836,0.824,1.674,1.647,2.508,2.47c0.15,0.146,0.273,0.288,0.288,0.326c0.003,0.027-0.106-0.059-0.257-0.205
						c-0.85-0.821-1.703-1.647-2.561-2.476c-0.428-0.416-0.855-0.833-1.284-1.251c-0.671-0.662-1.345-1.325-2.017-1.989
						c-0.605,0.613-1.214,1.229-1.822,1.844c0.605-0.595,1.212-1.192,1.822-1.793c1.582,1.603,3.176,3.218,4.794,4.858
						c0.229,0.226,0.46,0.453,0.691,0.681c0.228,0.225,0.45,0.453,0.669,0.683c2.283,2.283,4.441,4.456,6.801,6.754
						c2.02,1.955,3.788,3.667,5.802,5.616c0.802,0.771,1.583,1.523,2.354,2.266c0.419,0.404,0.834,0.807,1.248,1.208
						c0.641,0.628,1.277,1.254,1.916,1.881c-1.429,1.446-2.861,2.895-4.342,4.395c-0.361,0.37-0.724,0.685-0.797,0.697
						c-0.076,0.013,0.161-0.281,0.523-0.651c0.6-0.622,1.199-1.242,1.798-1.862c0.839-0.86,1.677-1.719,2.516-2.578
						c-2.521-2.452-5.038-4.903-7.583-7.382c-2.301-2.247-4.613-4.533-6.966-6.896c-0.646-0.648-1.278-1.286-1.909-1.92
						c0.005,0.013,0.008,0.025,0.003,0.029c-0.017,0.017-0.093-0.027-0.208-0.116c0.712,0.725,1.43,1.456,2.15,2.189
						c2.055,1.984,4.113,3.971,6.248,6.143c1.467,1.493,2.766,2.868,4.1,4.27c1.252,1.225,2.502,2.448,3.764,3.685
						c-0.826,0.841-1.664,1.691-2.504,2.548c-0.068,0.072-0.145,0.142-0.175,0.16c-0.032,0.019,0-0.024,0.069-0.098
						c0.361-0.382,0.725-0.767,1.091-1.153c0.466-0.483,0.933-0.969,1.403-1.457c-0.692-0.667-1.389-1.34-2.088-2.016
						c0.176,0.216,0.269,0.357,0.225,0.371c-0.045,0.013-0.222-0.114-0.473-0.328l0.937,0.941c0.212,0.213,0.361,0.385,0.332,0.384
						c-0.028,0.002-0.21-0.157-0.404-0.352c-1.175-1.179-2.347-2.355-3.519-3.531c-1.393-1.367-2.781-2.727-4.176-4.095
						c0.172,0.21,0.291,0.375,0.33,0.468v0.001c0.215,0.213,0.43,0.426,0.643,0.638c1.238,1.197,2.486,2.4,3.738,3.611
						c1.274,1.239,2.406,2.345,3.985,3.907c-0.825,0.831-1.651,1.663-2.48,2.497c-0.755,0.755-1.517,1.513-2.276,2.271
						c-0.077,0.079-0.148,0.139-0.156,0.133c-0.009-0.004,0.047-0.071,0.119-0.141c1.235-1.236,2.467-2.469,3.694-3.699
						l-0.006,0.006c-0.061,0.054-0.081,0.058-0.024-0.006c0.047-0.057,0.157-0.166,0.216-0.219c0.072-0.062,0.077-0.052,0.03,0.003
						c0.28-0.282,0.561-0.565,0.836-0.845c-1.08-1.062-2.158-2.121-3.23-3.174c-1.01-0.98-2.016-1.955-3.016-2.925l2.992,2.98
						l3.104,3.119l-0.201,0.199c-0.234,0.25-0.469,0.501-0.707,0.756c-0.066,0.07-0.162,0.158-0.197,0.181
						c-0.024,0.014,0.017-0.042,0.084-0.112l0.199-0.211c-0.215,0.213-0.413,0.396-0.557,0.517c-0.141,0.117-0.225,0.17-0.24,0.151
						c-0.013-0.056,0.296-0.419,0.697-0.817c0.218-0.222,0.438-0.443,0.654-0.663c-0.857-0.852-1.711-1.702-2.566-2.55l-0.354-0.343
						c-0.123-0.111-0.246-0.222-0.368-0.333c1.059,1.078,2.116,2.156,3.167,3.226c-0.566,0.554-1.126,1.103-1.686,1.65
						c-0.144,0.143-0.273,0.253-0.289,0.245c-0.016-0.008,0.09-0.135,0.232-0.277c0.519-0.538,1.037-1.074,1.562-1.618
						c-1.138-1.108-2.28-2.221-3.428-3.338c-1.195-1.175-2.396-2.354-3.598-3.534c-1.027-0.923-2.06-1.85-3.108-2.792
						c0.126,0.125,0.252,0.253,0.379,0.382c1.614,1.614,3.145,3.07,4.666,4.508c0.759,0.72,1.519,1.438,2.285,2.163
						c0.724,0.698,1.457,1.403,2.211,2.13c0.068,0.064,0.114,0.12,0.112,0.131c-0.004,0.009-0.057-0.033-0.123-0.098
						c-0.731-0.698-1.432-1.369-2.135-2.04c-0.748-0.708-1.494-1.417-2.271-2.153c-1.284-1.224-2.505-2.39-3.711-3.516
						c2.398,2.369,4.748,4.59,7.139,6.921c0.105,0.102,0.207,0.208,0.266,0.28c0.011,0.003,0.035,0.021,0.059,0.04
						c0.235,0.203,0.498,0.441,0.77,0.692c0.053,0.048,0.11,0.11,0.123,0.136C78.106,81.313,78.064,81.284,78.005,81.232z
						 M65.591,78.372c0.021,0.025,0.036,0.046,0.052,0.066c-0.061-0.068-0.125-0.14-0.196-0.221c0,0,0,0-0.241-0.34
						C65.205,77.877,65.396,78.124,65.591,78.372z M69.423,81.841c0-0.001,0-0.001-0.002-0.003c0.081,0.114,0.14,0.197,0.14,0.197
						C69.504,81.954,69.46,81.892,69.423,81.841z M57.05,58.337c-0.272-0.271-0.544-0.544-0.813-0.815
						c-0.761,0.752-1.518,1.501-2.273,2.249l-1.625,1.564c0.3-0.306,0.598-0.61,0.898-0.915c0.996-0.97,1.994-1.94,3-2.918
						C56.505,57.778,56.777,58.058,57.05,58.337z M67.85,81.007c-0.303-0.355-0.528-0.645-0.738-0.92
						c-0.223-0.211-0.451-0.436-0.68-0.666c-0.609-0.624-1.203-1.23-1.79-1.83c0.06,0.094-0.081-0.049-0.155-0.12
						c-0.076-0.074-0.152-0.146-0.227-0.219c0.617,0.645,1.236,1.292,1.867,1.949C66.694,79.796,67.318,80.435,67.85,81.007z
						 M72.327,85.349c0.015,0.02,0.029,0.038,0.047,0.061c0,0,0,0-0.145-0.092C72.229,85.318,72.271,85.332,72.327,85.349z
						 M72.557,85.491c-0.027-0.031-0.057-0.061-0.088-0.094C72.512,85.419,72.537,85.452,72.557,85.491z M71.76,84.628
						c0.042,0.056,0.068,0.091,0.104,0.132C71.76,84.629,71.76,84.628,71.76,84.628z M71.939,83.271l-0.454-0.193l0.479,0.228
						L71.939,83.271z"/>
				</g>
			</g>
		</g>
	</g>
</g>
</svg>
