<?xml version="1.0" encoding="utf-8"?>
<!-- Generator: Adobe Illustrator 16.0.0, SVG Export Plug-In . SVG Version: 6.00 Build 0)  -->
<!DOCTYPE svg PUBLIC "-//W3C//DTD SVG 1.1//EN" "http://www.w3.org/Graphics/SVG/1.1/DTD/svg11.dtd">
<svg version="1.1" id="Capa_1" xmlns="http://www.w3.org/2000/svg" xmlns:xlink="http://www.w3.org/1999/xlink" x="0px" y="0px"
	 width="58.666px" height="154px" viewBox="0 0 58.666 154" enable-background="new 0 0 58.666 154" xml:space="preserve">
<g>
	<g>
		<path fill="#000000" d="M31.65,55.567c4.125-3.255,10.044-6.509,7.824-16.263c-13.953-61.339-6.626-15.735-7.887,0.452
			c-0.115,1.461-2.102,1.757-2.681,0.41c-2.681-6.227-3.362-24.319-6.892-30.951c-1.32,8.143,0.563,40.945-4.115,31.84
			c-0.889-1.727-6.38-43.477-6.998-28.596c-1.74,41.77-2.709,41.97,13.172,44.531c6.022,49.373,2.094,76.519,13.438,86.917
			c4.52,4.146,10.769,1.374,11.174-8.112C49.05,127.239,29.887,56.959,31.65,55.567z M41.604,136.882
			c-0.277,0.248-0.615,0.413-1.012,0.452c-0.844,0.082-1.645-0.476-2.098-1.191c-0.451-0.716-0.618-1.57-0.769-2.405
			c-0.222-1.195-0.421-2.424-0.218-3.624c0.289-1.725,1.574-3.213,3.365-2.333c1.928,0.95,1.643,4.538,1.726,6.249
			C42.65,135.059,42.32,136.246,41.604,136.882z"/>
	</g>
</g>
</svg>